M48
; DRILL file {KiCad 5.1.9+dfsg1-1+deb11u1} date Wed Nov  8 12:19:51 2023
; FORMAT={-:-/ absolute / metric / decimal}
; #@! TF.CreationDate,2023-11-08T12:19:51-05:00
; #@! TF.GenerationSoftware,Kicad,Pcbnew,5.1.9+dfsg1-1+deb11u1
; #@! TF.FileFunction,Plated,1,2,PTH
FMAT,2
METRIC
T1C0.400
T2C0.750
T3C1.600
%
G90
G05
T1
X109.435Y-112.465
X110.56Y-112.115
X118.485Y-112.465
X119.38Y-110.49
X122.455Y-112.465
X123.725Y-112.465
X127.0Y-113.575
X127.84Y-112.85
X128.965Y-112.465
X136.745Y-112.465
X144.78Y-109.22
X148.59Y-107.95
X148.59Y-109.22
X151.13Y-115.57
X152.4Y-109.22
X153.67Y-114.3
X153.67Y-115.57
X157.48Y-113.03
X165.875Y-91.185
X170.18Y-74.71
X175.373Y-87.694
T2
X109.435Y-112.465
X110.705Y-112.465
X111.975Y-112.465
X115.945Y-112.465
X117.215Y-112.465
X118.485Y-112.465
X122.455Y-112.465
X123.725Y-112.465
X124.995Y-112.465
X128.965Y-112.465
X130.235Y-112.465
X131.505Y-112.465
X135.475Y-112.465
X136.745Y-112.465
X138.015Y-112.465
T3
X110.275Y-91.185
X165.875Y-91.185
T0
M30
