G04 #@! TF.GenerationSoftware,KiCad,Pcbnew,5.1.9+dfsg1-1+deb11u1*
G04 #@! TF.CreationDate,2023-11-08T13:21:38-05:00*
G04 #@! TF.ProjectId,Unit1-04,556e6974-312d-4303-942e-6b696361645f,rev?*
G04 #@! TF.SameCoordinates,Original*
G04 #@! TF.FileFunction,Soldermask,Top*
G04 #@! TF.FilePolarity,Negative*
%FSLAX46Y46*%
G04 Gerber Fmt 4.6, Leading zero omitted, Abs format (unit mm)*
G04 Created by KiCad (PCBNEW 5.1.9+dfsg1-1+deb11u1) date 2023-11-08 13:21:38*
%MOMM*%
%LPD*%
G01*
G04 APERTURE LIST*
%ADD10C,2.600000*%
%ADD11R,2.600000X2.600000*%
%ADD12C,3.800000*%
%ADD13R,0.550000X0.380000*%
%ADD14R,1.400000X1.200000*%
%ADD15O,1.050000X1.500000*%
%ADD16R,1.050000X1.500000*%
%ADD17C,0.900000*%
%ADD18R,1.250000X2.500000*%
G04 APERTURE END LIST*
D10*
X165875001Y-91185001D03*
D11*
X110275001Y-91185001D03*
D12*
X122175001Y-91185001D03*
X153975001Y-91185001D03*
D13*
X143225001Y-112925001D03*
X142325001Y-112925001D03*
D14*
X142775001Y-111885001D03*
D15*
X110705001Y-112465001D03*
X111975001Y-112465001D03*
D16*
X109435001Y-112465001D03*
D15*
X117215001Y-112465001D03*
X118485001Y-112465001D03*
D16*
X115945001Y-112465001D03*
D15*
X123725001Y-112465001D03*
X124995001Y-112465001D03*
D16*
X122455001Y-112465001D03*
X128965001Y-112465001D03*
D15*
X131505001Y-112465001D03*
X130235001Y-112465001D03*
D16*
X135475001Y-112465001D03*
D15*
X138015001Y-112465001D03*
X136745001Y-112465001D03*
G36*
G01*
X146595000Y-110590000D02*
X146595000Y-110390000D01*
G75*
G02*
X146695000Y-110290000I100000J0D01*
G01*
X147130000Y-110290000D01*
G75*
G02*
X147230000Y-110390000I0J-100000D01*
G01*
X147230000Y-110590000D01*
G75*
G02*
X147130000Y-110690000I-100000J0D01*
G01*
X146695000Y-110690000D01*
G75*
G02*
X146595000Y-110590000I0J100000D01*
G01*
G37*
G36*
G01*
X147410000Y-110590000D02*
X147410000Y-110390000D01*
G75*
G02*
X147510000Y-110290000I100000J0D01*
G01*
X147945000Y-110290000D01*
G75*
G02*
X148045000Y-110390000I0J-100000D01*
G01*
X148045000Y-110590000D01*
G75*
G02*
X147945000Y-110690000I-100000J0D01*
G01*
X147510000Y-110690000D01*
G75*
G02*
X147410000Y-110590000I0J100000D01*
G01*
G37*
G36*
G01*
X147410000Y-114400000D02*
X147410000Y-114200000D01*
G75*
G02*
X147510000Y-114100000I100000J0D01*
G01*
X147945000Y-114100000D01*
G75*
G02*
X148045000Y-114200000I0J-100000D01*
G01*
X148045000Y-114400000D01*
G75*
G02*
X147945000Y-114500000I-100000J0D01*
G01*
X147510000Y-114500000D01*
G75*
G02*
X147410000Y-114400000I0J100000D01*
G01*
G37*
G36*
G01*
X146595000Y-114400000D02*
X146595000Y-114200000D01*
G75*
G02*
X146695000Y-114100000I100000J0D01*
G01*
X147130000Y-114100000D01*
G75*
G02*
X147230000Y-114200000I0J-100000D01*
G01*
X147230000Y-114400000D01*
G75*
G02*
X147130000Y-114500000I-100000J0D01*
G01*
X146695000Y-114500000D01*
G75*
G02*
X146595000Y-114400000I0J100000D01*
G01*
G37*
G36*
G01*
X151220000Y-110590000D02*
X151220000Y-110390000D01*
G75*
G02*
X151320000Y-110290000I100000J0D01*
G01*
X151755000Y-110290000D01*
G75*
G02*
X151855000Y-110390000I0J-100000D01*
G01*
X151855000Y-110590000D01*
G75*
G02*
X151755000Y-110690000I-100000J0D01*
G01*
X151320000Y-110690000D01*
G75*
G02*
X151220000Y-110590000I0J100000D01*
G01*
G37*
G36*
G01*
X150405000Y-110590000D02*
X150405000Y-110390000D01*
G75*
G02*
X150505000Y-110290000I100000J0D01*
G01*
X150940000Y-110290000D01*
G75*
G02*
X151040000Y-110390000I0J-100000D01*
G01*
X151040000Y-110590000D01*
G75*
G02*
X150940000Y-110690000I-100000J0D01*
G01*
X150505000Y-110690000D01*
G75*
G02*
X150405000Y-110590000I0J100000D01*
G01*
G37*
G36*
G01*
X150405000Y-114400000D02*
X150405000Y-114200000D01*
G75*
G02*
X150505000Y-114100000I100000J0D01*
G01*
X150940000Y-114100000D01*
G75*
G02*
X151040000Y-114200000I0J-100000D01*
G01*
X151040000Y-114400000D01*
G75*
G02*
X150940000Y-114500000I-100000J0D01*
G01*
X150505000Y-114500000D01*
G75*
G02*
X150405000Y-114400000I0J100000D01*
G01*
G37*
G36*
G01*
X151220000Y-114400000D02*
X151220000Y-114200000D01*
G75*
G02*
X151320000Y-114100000I100000J0D01*
G01*
X151755000Y-114100000D01*
G75*
G02*
X151855000Y-114200000I0J-100000D01*
G01*
X151855000Y-114400000D01*
G75*
G02*
X151755000Y-114500000I-100000J0D01*
G01*
X151320000Y-114500000D01*
G75*
G02*
X151220000Y-114400000I0J100000D01*
G01*
G37*
G36*
G01*
X159295000Y-110590000D02*
X159295000Y-110390000D01*
G75*
G02*
X159395000Y-110290000I100000J0D01*
G01*
X159830000Y-110290000D01*
G75*
G02*
X159930000Y-110390000I0J-100000D01*
G01*
X159930000Y-110590000D01*
G75*
G02*
X159830000Y-110690000I-100000J0D01*
G01*
X159395000Y-110690000D01*
G75*
G02*
X159295000Y-110590000I0J100000D01*
G01*
G37*
G36*
G01*
X160110000Y-110590000D02*
X160110000Y-110390000D01*
G75*
G02*
X160210000Y-110290000I100000J0D01*
G01*
X160645000Y-110290000D01*
G75*
G02*
X160745000Y-110390000I0J-100000D01*
G01*
X160745000Y-110590000D01*
G75*
G02*
X160645000Y-110690000I-100000J0D01*
G01*
X160210000Y-110690000D01*
G75*
G02*
X160110000Y-110590000I0J100000D01*
G01*
G37*
G36*
G01*
X155030000Y-110590000D02*
X155030000Y-110390000D01*
G75*
G02*
X155130000Y-110290000I100000J0D01*
G01*
X155565000Y-110290000D01*
G75*
G02*
X155665000Y-110390000I0J-100000D01*
G01*
X155665000Y-110590000D01*
G75*
G02*
X155565000Y-110690000I-100000J0D01*
G01*
X155130000Y-110690000D01*
G75*
G02*
X155030000Y-110590000I0J100000D01*
G01*
G37*
G36*
G01*
X154215000Y-110590000D02*
X154215000Y-110390000D01*
G75*
G02*
X154315000Y-110290000I100000J0D01*
G01*
X154750000Y-110290000D01*
G75*
G02*
X154850000Y-110390000I0J-100000D01*
G01*
X154850000Y-110590000D01*
G75*
G02*
X154750000Y-110690000I-100000J0D01*
G01*
X154315000Y-110690000D01*
G75*
G02*
X154215000Y-110590000I0J100000D01*
G01*
G37*
G36*
G01*
X154215000Y-114400000D02*
X154215000Y-114200000D01*
G75*
G02*
X154315000Y-114100000I100000J0D01*
G01*
X154750000Y-114100000D01*
G75*
G02*
X154850000Y-114200000I0J-100000D01*
G01*
X154850000Y-114400000D01*
G75*
G02*
X154750000Y-114500000I-100000J0D01*
G01*
X154315000Y-114500000D01*
G75*
G02*
X154215000Y-114400000I0J100000D01*
G01*
G37*
G36*
G01*
X155030000Y-114400000D02*
X155030000Y-114200000D01*
G75*
G02*
X155130000Y-114100000I100000J0D01*
G01*
X155565000Y-114100000D01*
G75*
G02*
X155665000Y-114200000I0J-100000D01*
G01*
X155665000Y-114400000D01*
G75*
G02*
X155565000Y-114500000I-100000J0D01*
G01*
X155130000Y-114500000D01*
G75*
G02*
X155030000Y-114400000I0J100000D01*
G01*
G37*
D17*
X177625001Y-78185001D03*
X170825001Y-78185001D03*
D18*
X176725001Y-75435001D03*
X174225001Y-75435001D03*
X171725001Y-75435001D03*
D17*
X177625001Y-88900000D03*
X170825001Y-88900000D03*
D18*
X176725001Y-86150000D03*
X174225001Y-86150000D03*
X171725001Y-86150000D03*
M02*
