G04 #@! TF.GenerationSoftware,KiCad,Pcbnew,5.1.9+dfsg1-1+deb11u1*
G04 #@! TF.CreationDate,2023-11-08T12:18:59-05:00*
G04 #@! TF.ProjectId,Unit1-04,556e6974-312d-4303-942e-6b696361645f,rev?*
G04 #@! TF.SameCoordinates,Original*
G04 #@! TF.FileFunction,Copper,L1,Top*
G04 #@! TF.FilePolarity,Positive*
%FSLAX46Y46*%
G04 Gerber Fmt 4.6, Leading zero omitted, Abs format (unit mm)*
G04 Created by KiCad (PCBNEW 5.1.9+dfsg1-1+deb11u1) date 2023-11-08 12:18:59*
%MOMM*%
%LPD*%
G01*
G04 APERTURE LIST*
G04 #@! TA.AperFunction,ComponentPad*
%ADD10C,2.600000*%
G04 #@! TD*
G04 #@! TA.AperFunction,ComponentPad*
%ADD11R,2.600000X2.600000*%
G04 #@! TD*
G04 #@! TA.AperFunction,SMDPad,CuDef*
%ADD12R,0.550000X0.380000*%
G04 #@! TD*
G04 #@! TA.AperFunction,SMDPad,CuDef*
%ADD13R,1.400000X1.200000*%
G04 #@! TD*
G04 #@! TA.AperFunction,ComponentPad*
%ADD14O,1.050000X1.500000*%
G04 #@! TD*
G04 #@! TA.AperFunction,ComponentPad*
%ADD15R,1.050000X1.500000*%
G04 #@! TD*
G04 #@! TA.AperFunction,SMDPad,CuDef*
%ADD16R,1.250000X2.500000*%
G04 #@! TD*
G04 #@! TA.AperFunction,ViaPad*
%ADD17C,0.800000*%
G04 #@! TD*
G04 #@! TA.AperFunction,Conductor*
%ADD18C,0.250000*%
G04 #@! TD*
G04 APERTURE END LIST*
D10*
X165875001Y-91185001D03*
D11*
X110275001Y-91185001D03*
D12*
X143225001Y-112925001D03*
X142325001Y-112925001D03*
D13*
X142775001Y-111885001D03*
D14*
X110705001Y-112465001D03*
X111975001Y-112465001D03*
D15*
X109435001Y-112465001D03*
D14*
X117215001Y-112465001D03*
X118485001Y-112465001D03*
D15*
X115945001Y-112465001D03*
D14*
X123725001Y-112465001D03*
X124995001Y-112465001D03*
D15*
X122455001Y-112465001D03*
X128965001Y-112465001D03*
D14*
X131505001Y-112465001D03*
X130235001Y-112465001D03*
D15*
X135475001Y-112465001D03*
D14*
X138015001Y-112465001D03*
X136745001Y-112465001D03*
G04 #@! TA.AperFunction,SMDPad,CuDef*
G36*
G01*
X146595000Y-110590000D02*
X146595000Y-110390000D01*
G75*
G02*
X146695000Y-110290000I100000J0D01*
G01*
X147130000Y-110290000D01*
G75*
G02*
X147230000Y-110390000I0J-100000D01*
G01*
X147230000Y-110590000D01*
G75*
G02*
X147130000Y-110690000I-100000J0D01*
G01*
X146695000Y-110690000D01*
G75*
G02*
X146595000Y-110590000I0J100000D01*
G01*
G37*
G04 #@! TD.AperFunction*
G04 #@! TA.AperFunction,SMDPad,CuDef*
G36*
G01*
X147410000Y-110590000D02*
X147410000Y-110390000D01*
G75*
G02*
X147510000Y-110290000I100000J0D01*
G01*
X147945000Y-110290000D01*
G75*
G02*
X148045000Y-110390000I0J-100000D01*
G01*
X148045000Y-110590000D01*
G75*
G02*
X147945000Y-110690000I-100000J0D01*
G01*
X147510000Y-110690000D01*
G75*
G02*
X147410000Y-110590000I0J100000D01*
G01*
G37*
G04 #@! TD.AperFunction*
G04 #@! TA.AperFunction,SMDPad,CuDef*
G36*
G01*
X147410000Y-114400000D02*
X147410000Y-114200000D01*
G75*
G02*
X147510000Y-114100000I100000J0D01*
G01*
X147945000Y-114100000D01*
G75*
G02*
X148045000Y-114200000I0J-100000D01*
G01*
X148045000Y-114400000D01*
G75*
G02*
X147945000Y-114500000I-100000J0D01*
G01*
X147510000Y-114500000D01*
G75*
G02*
X147410000Y-114400000I0J100000D01*
G01*
G37*
G04 #@! TD.AperFunction*
G04 #@! TA.AperFunction,SMDPad,CuDef*
G36*
G01*
X146595000Y-114400000D02*
X146595000Y-114200000D01*
G75*
G02*
X146695000Y-114100000I100000J0D01*
G01*
X147130000Y-114100000D01*
G75*
G02*
X147230000Y-114200000I0J-100000D01*
G01*
X147230000Y-114400000D01*
G75*
G02*
X147130000Y-114500000I-100000J0D01*
G01*
X146695000Y-114500000D01*
G75*
G02*
X146595000Y-114400000I0J100000D01*
G01*
G37*
G04 #@! TD.AperFunction*
G04 #@! TA.AperFunction,SMDPad,CuDef*
G36*
G01*
X151220000Y-110590000D02*
X151220000Y-110390000D01*
G75*
G02*
X151320000Y-110290000I100000J0D01*
G01*
X151755000Y-110290000D01*
G75*
G02*
X151855000Y-110390000I0J-100000D01*
G01*
X151855000Y-110590000D01*
G75*
G02*
X151755000Y-110690000I-100000J0D01*
G01*
X151320000Y-110690000D01*
G75*
G02*
X151220000Y-110590000I0J100000D01*
G01*
G37*
G04 #@! TD.AperFunction*
G04 #@! TA.AperFunction,SMDPad,CuDef*
G36*
G01*
X150405000Y-110590000D02*
X150405000Y-110390000D01*
G75*
G02*
X150505000Y-110290000I100000J0D01*
G01*
X150940000Y-110290000D01*
G75*
G02*
X151040000Y-110390000I0J-100000D01*
G01*
X151040000Y-110590000D01*
G75*
G02*
X150940000Y-110690000I-100000J0D01*
G01*
X150505000Y-110690000D01*
G75*
G02*
X150405000Y-110590000I0J100000D01*
G01*
G37*
G04 #@! TD.AperFunction*
G04 #@! TA.AperFunction,SMDPad,CuDef*
G36*
G01*
X150405000Y-114400000D02*
X150405000Y-114200000D01*
G75*
G02*
X150505000Y-114100000I100000J0D01*
G01*
X150940000Y-114100000D01*
G75*
G02*
X151040000Y-114200000I0J-100000D01*
G01*
X151040000Y-114400000D01*
G75*
G02*
X150940000Y-114500000I-100000J0D01*
G01*
X150505000Y-114500000D01*
G75*
G02*
X150405000Y-114400000I0J100000D01*
G01*
G37*
G04 #@! TD.AperFunction*
G04 #@! TA.AperFunction,SMDPad,CuDef*
G36*
G01*
X151220000Y-114400000D02*
X151220000Y-114200000D01*
G75*
G02*
X151320000Y-114100000I100000J0D01*
G01*
X151755000Y-114100000D01*
G75*
G02*
X151855000Y-114200000I0J-100000D01*
G01*
X151855000Y-114400000D01*
G75*
G02*
X151755000Y-114500000I-100000J0D01*
G01*
X151320000Y-114500000D01*
G75*
G02*
X151220000Y-114400000I0J100000D01*
G01*
G37*
G04 #@! TD.AperFunction*
G04 #@! TA.AperFunction,SMDPad,CuDef*
G36*
G01*
X159295000Y-110590000D02*
X159295000Y-110390000D01*
G75*
G02*
X159395000Y-110290000I100000J0D01*
G01*
X159830000Y-110290000D01*
G75*
G02*
X159930000Y-110390000I0J-100000D01*
G01*
X159930000Y-110590000D01*
G75*
G02*
X159830000Y-110690000I-100000J0D01*
G01*
X159395000Y-110690000D01*
G75*
G02*
X159295000Y-110590000I0J100000D01*
G01*
G37*
G04 #@! TD.AperFunction*
G04 #@! TA.AperFunction,SMDPad,CuDef*
G36*
G01*
X160110000Y-110590000D02*
X160110000Y-110390000D01*
G75*
G02*
X160210000Y-110290000I100000J0D01*
G01*
X160645000Y-110290000D01*
G75*
G02*
X160745000Y-110390000I0J-100000D01*
G01*
X160745000Y-110590000D01*
G75*
G02*
X160645000Y-110690000I-100000J0D01*
G01*
X160210000Y-110690000D01*
G75*
G02*
X160110000Y-110590000I0J100000D01*
G01*
G37*
G04 #@! TD.AperFunction*
G04 #@! TA.AperFunction,SMDPad,CuDef*
G36*
G01*
X155030000Y-110590000D02*
X155030000Y-110390000D01*
G75*
G02*
X155130000Y-110290000I100000J0D01*
G01*
X155565000Y-110290000D01*
G75*
G02*
X155665000Y-110390000I0J-100000D01*
G01*
X155665000Y-110590000D01*
G75*
G02*
X155565000Y-110690000I-100000J0D01*
G01*
X155130000Y-110690000D01*
G75*
G02*
X155030000Y-110590000I0J100000D01*
G01*
G37*
G04 #@! TD.AperFunction*
G04 #@! TA.AperFunction,SMDPad,CuDef*
G36*
G01*
X154215000Y-110590000D02*
X154215000Y-110390000D01*
G75*
G02*
X154315000Y-110290000I100000J0D01*
G01*
X154750000Y-110290000D01*
G75*
G02*
X154850000Y-110390000I0J-100000D01*
G01*
X154850000Y-110590000D01*
G75*
G02*
X154750000Y-110690000I-100000J0D01*
G01*
X154315000Y-110690000D01*
G75*
G02*
X154215000Y-110590000I0J100000D01*
G01*
G37*
G04 #@! TD.AperFunction*
G04 #@! TA.AperFunction,SMDPad,CuDef*
G36*
G01*
X154215000Y-114400000D02*
X154215000Y-114200000D01*
G75*
G02*
X154315000Y-114100000I100000J0D01*
G01*
X154750000Y-114100000D01*
G75*
G02*
X154850000Y-114200000I0J-100000D01*
G01*
X154850000Y-114400000D01*
G75*
G02*
X154750000Y-114500000I-100000J0D01*
G01*
X154315000Y-114500000D01*
G75*
G02*
X154215000Y-114400000I0J100000D01*
G01*
G37*
G04 #@! TD.AperFunction*
G04 #@! TA.AperFunction,SMDPad,CuDef*
G36*
G01*
X155030000Y-114400000D02*
X155030000Y-114200000D01*
G75*
G02*
X155130000Y-114100000I100000J0D01*
G01*
X155565000Y-114100000D01*
G75*
G02*
X155665000Y-114200000I0J-100000D01*
G01*
X155665000Y-114400000D01*
G75*
G02*
X155565000Y-114500000I-100000J0D01*
G01*
X155130000Y-114500000D01*
G75*
G02*
X155030000Y-114400000I0J100000D01*
G01*
G37*
G04 #@! TD.AperFunction*
D16*
X176725001Y-75435001D03*
X174225001Y-75435001D03*
X171725001Y-75435001D03*
X176725001Y-86150000D03*
X174225001Y-86150000D03*
X171725001Y-86150000D03*
D17*
X175373288Y-87693552D03*
X165875001Y-91185001D03*
X119380000Y-110490000D03*
X118485001Y-112465001D03*
X110560003Y-112114991D03*
X144780000Y-109220000D03*
X148590000Y-109220000D03*
X157480000Y-113030000D03*
X128965001Y-112465001D03*
X122455001Y-112465001D03*
X109435001Y-112465001D03*
X148590000Y-107950000D03*
X123725001Y-112465001D03*
X153670000Y-114300000D03*
X127839999Y-112850000D03*
X151130000Y-115570000D03*
X127000000Y-113575000D03*
X153670000Y-115570000D03*
X136745001Y-112465001D03*
X170180000Y-74710001D03*
X152400000Y-109220000D03*
D18*
X176725001Y-86341839D02*
X175373288Y-87693552D01*
X176725001Y-86150000D02*
X176725001Y-86341839D01*
X143800002Y-111421523D02*
X143800002Y-112875000D01*
X164036524Y-91185001D02*
X143800002Y-111421523D01*
X165875001Y-91185001D02*
X164036524Y-91185001D01*
X139520002Y-110960000D02*
X138015001Y-112465001D01*
X143735002Y-110960000D02*
X139520002Y-110960000D01*
X143800002Y-111025000D02*
X143735002Y-110960000D01*
X143800002Y-112875000D02*
X143800002Y-111025000D01*
X143750001Y-112925001D02*
X143800002Y-112875000D01*
X143225001Y-112925001D02*
X143750001Y-112925001D01*
X137040000Y-110490000D02*
X119380000Y-110490000D01*
X138015001Y-111465001D02*
X137040000Y-110490000D01*
X138015001Y-112465001D02*
X138015001Y-111465001D01*
X124475001Y-75435001D02*
X171725001Y-75435001D01*
X110275001Y-89635001D02*
X124475001Y-75435001D01*
X110275001Y-91185001D02*
X110275001Y-89635001D01*
X176725001Y-81150000D02*
X171725001Y-86150000D01*
X176725001Y-75435001D02*
X176725001Y-81150000D01*
X175150000Y-77010002D02*
X176725001Y-75435001D01*
X173300002Y-77010002D02*
X175150000Y-77010002D01*
X171725001Y-75435001D02*
X173300002Y-77010002D01*
X167500002Y-102402498D02*
X159612500Y-110290000D01*
X159612500Y-110290000D02*
X159612500Y-110490000D01*
X167500002Y-89499999D02*
X167500002Y-102402498D01*
X170850001Y-86150000D02*
X167500002Y-89499999D01*
X171725001Y-86150000D02*
X170850001Y-86150000D01*
X159087490Y-109964990D02*
X159612500Y-110490000D01*
X154857510Y-109964990D02*
X159087490Y-109964990D01*
X154532500Y-110290000D02*
X154857510Y-109964990D01*
X154532500Y-110490000D02*
X154532500Y-110290000D01*
X152262510Y-113774990D02*
X142984990Y-113774990D01*
X155347500Y-110690000D02*
X152262510Y-113774990D01*
X155347500Y-110490000D02*
X155347500Y-110690000D01*
X142325001Y-113115001D02*
X142325001Y-112925001D01*
X142984990Y-113774990D02*
X142325001Y-113115001D01*
X135475001Y-112622096D02*
X135475001Y-112465001D01*
X136392916Y-113540011D02*
X135475001Y-112622096D01*
X141709991Y-113540011D02*
X136392916Y-113540011D01*
X142325001Y-112925001D02*
X141709991Y-113540011D01*
X113454994Y-109220000D02*
X144780000Y-109220000D01*
X110560003Y-112114991D02*
X113454994Y-109220000D01*
X148590000Y-109627500D02*
X147727500Y-110490000D01*
X148590000Y-109220000D02*
X148590000Y-109627500D01*
X158087500Y-113030000D02*
X157480000Y-113030000D01*
X160427500Y-110690000D02*
X158087500Y-113030000D01*
X160427500Y-110490000D02*
X160427500Y-110690000D01*
X117215001Y-113465001D02*
X117215001Y-112465001D01*
X118575010Y-114825010D02*
X117215001Y-113465001D01*
X147402490Y-114825010D02*
X118575010Y-114825010D01*
X147727500Y-114500000D02*
X147402490Y-114825010D01*
X147727500Y-114300000D02*
X147727500Y-114500000D01*
X152203002Y-107950000D02*
X148590000Y-107950000D01*
X153125001Y-108871999D02*
X152203002Y-107950000D01*
X153125001Y-109568001D02*
X153125001Y-108871999D01*
X152203002Y-110490000D02*
X153125001Y-109568001D01*
X151537500Y-110490000D02*
X152203002Y-110490000D01*
X154532500Y-114300000D02*
X153670000Y-114300000D01*
X131505001Y-111465001D02*
X131505001Y-112465001D01*
X131430000Y-111390000D02*
X131505001Y-111465001D01*
X128180000Y-111390000D02*
X131430000Y-111390000D01*
X127839999Y-111730001D02*
X128180000Y-111390000D01*
X127839999Y-112850000D02*
X127839999Y-111730001D01*
X151537500Y-115162500D02*
X151130000Y-115570000D01*
X151537500Y-114300000D02*
X151537500Y-115162500D01*
X130235001Y-113055003D02*
X130235001Y-112465001D01*
X129715004Y-113575000D02*
X130235001Y-113055003D01*
X127000000Y-113575000D02*
X129715004Y-113575000D01*
X154277500Y-115570000D02*
X153670000Y-115570000D01*
X155347500Y-114500000D02*
X154277500Y-115570000D01*
X155347500Y-114300000D02*
X155347500Y-114500000D01*
X170180000Y-74520000D02*
X170180000Y-74710001D01*
X170840000Y-73860000D02*
X170180000Y-74520000D01*
X172650000Y-73860000D02*
X170840000Y-73860000D01*
X174225001Y-75435001D02*
X172650000Y-73860000D01*
X151792500Y-109220000D02*
X152400000Y-109220000D01*
X150722500Y-110290000D02*
X151792500Y-109220000D01*
X150722500Y-110490000D02*
X150722500Y-110290000D01*
X150197490Y-111015010D02*
X150722500Y-110490000D01*
X147237510Y-111015010D02*
X150197490Y-111015010D01*
X146912500Y-110690000D02*
X147237510Y-111015010D01*
X146912500Y-110490000D02*
X146912500Y-110690000D01*
X150722500Y-114500000D02*
X150722500Y-114300000D01*
X149747480Y-115275020D02*
X150722500Y-114300000D01*
X116895018Y-115275020D02*
X149747480Y-115275020D01*
X115095000Y-113475002D02*
X116895018Y-115275020D01*
X115095000Y-111455000D02*
X115095000Y-113475002D01*
X115160000Y-111390000D02*
X115095000Y-111455000D01*
X118837095Y-111390000D02*
X115160000Y-111390000D01*
X121747095Y-114300000D02*
X118837095Y-111390000D01*
X146912500Y-114300000D02*
X121747095Y-114300000D01*
X174225001Y-97611057D02*
X174225001Y-86150000D01*
X155541057Y-116295001D02*
X174225001Y-97611057D01*
X150781999Y-116295001D02*
X155541057Y-116295001D01*
X150404999Y-115103001D02*
X150404999Y-115918001D01*
X150722500Y-114785500D02*
X150404999Y-115103001D01*
X150404999Y-115918001D02*
X150781999Y-116295001D01*
X150722500Y-114300000D02*
X150722500Y-114785500D01*
M02*
