G04 #@! TF.GenerationSoftware,KiCad,Pcbnew,5.1.9+dfsg1-1+deb11u1*
G04 #@! TF.CreationDate,2023-11-08T13:21:38-05:00*
G04 #@! TF.ProjectId,Unit1-04,556e6974-312d-4303-942e-6b696361645f,rev?*
G04 #@! TF.SameCoordinates,Original*
G04 #@! TF.FileFunction,Legend,Bot*
G04 #@! TF.FilePolarity,Positive*
%FSLAX46Y46*%
G04 Gerber Fmt 4.6, Leading zero omitted, Abs format (unit mm)*
G04 Created by KiCad (PCBNEW 5.1.9+dfsg1-1+deb11u1) date 2023-11-08 13:21:38*
%MOMM*%
%LPD*%
G01*
G04 APERTURE LIST*
%ADD10C,0.300000*%
%ADD11C,2.600000*%
%ADD12R,2.600000X2.600000*%
%ADD13C,3.800000*%
%ADD14O,1.050000X1.500000*%
%ADD15R,1.050000X1.500000*%
%ADD16C,0.900000*%
G04 APERTURE END LIST*
D10*
X137551428Y-76725714D02*
X137622857Y-76797142D01*
X137837142Y-76868571D01*
X137980000Y-76868571D01*
X138194285Y-76797142D01*
X138337142Y-76654285D01*
X138408571Y-76511428D01*
X138480000Y-76225714D01*
X138480000Y-76011428D01*
X138408571Y-75725714D01*
X138337142Y-75582857D01*
X138194285Y-75440000D01*
X137980000Y-75368571D01*
X137837142Y-75368571D01*
X137622857Y-75440000D01*
X137551428Y-75511428D01*
X136908571Y-76868571D02*
X136908571Y-75868571D01*
X136908571Y-76154285D02*
X136837142Y-76011428D01*
X136765714Y-75940000D01*
X136622857Y-75868571D01*
X136480000Y-75868571D01*
X135408571Y-76797142D02*
X135551428Y-76868571D01*
X135837142Y-76868571D01*
X135980000Y-76797142D01*
X136051428Y-76654285D01*
X136051428Y-76082857D01*
X135980000Y-75940000D01*
X135837142Y-75868571D01*
X135551428Y-75868571D01*
X135408571Y-75940000D01*
X135337142Y-76082857D01*
X135337142Y-76225714D01*
X136051428Y-76368571D01*
X134051428Y-76868571D02*
X134051428Y-76082857D01*
X134122857Y-75940000D01*
X134265714Y-75868571D01*
X134551428Y-75868571D01*
X134694285Y-75940000D01*
X134051428Y-76797142D02*
X134194285Y-76868571D01*
X134551428Y-76868571D01*
X134694285Y-76797142D01*
X134765714Y-76654285D01*
X134765714Y-76511428D01*
X134694285Y-76368571D01*
X134551428Y-76297142D01*
X134194285Y-76297142D01*
X134051428Y-76225714D01*
X133551428Y-75868571D02*
X132980000Y-75868571D01*
X133337142Y-75368571D02*
X133337142Y-76654285D01*
X133265714Y-76797142D01*
X133122857Y-76868571D01*
X132980000Y-76868571D01*
X131908571Y-76797142D02*
X132051428Y-76868571D01*
X132337142Y-76868571D01*
X132480000Y-76797142D01*
X132551428Y-76654285D01*
X132551428Y-76082857D01*
X132480000Y-75940000D01*
X132337142Y-75868571D01*
X132051428Y-75868571D01*
X131908571Y-75940000D01*
X131837142Y-76082857D01*
X131837142Y-76225714D01*
X132551428Y-76368571D01*
X130551428Y-76868571D02*
X130551428Y-75368571D01*
X130551428Y-76797142D02*
X130694285Y-76868571D01*
X130980000Y-76868571D01*
X131122857Y-76797142D01*
X131194285Y-76725714D01*
X131265714Y-76582857D01*
X131265714Y-76154285D01*
X131194285Y-76011428D01*
X131122857Y-75940000D01*
X130980000Y-75868571D01*
X130694285Y-75868571D01*
X130551428Y-75940000D01*
X128194285Y-76082857D02*
X127980000Y-76154285D01*
X127908571Y-76225714D01*
X127837142Y-76368571D01*
X127837142Y-76582857D01*
X127908571Y-76725714D01*
X127980000Y-76797142D01*
X128122857Y-76868571D01*
X128694285Y-76868571D01*
X128694285Y-75368571D01*
X128194285Y-75368571D01*
X128051428Y-75440000D01*
X127980000Y-75511428D01*
X127908571Y-75654285D01*
X127908571Y-75797142D01*
X127980000Y-75940000D01*
X128051428Y-76011428D01*
X128194285Y-76082857D01*
X128694285Y-76082857D01*
X127337142Y-75868571D02*
X126980000Y-76868571D01*
X126622857Y-75868571D02*
X126980000Y-76868571D01*
X127122857Y-77225714D01*
X127194285Y-77297142D01*
X127337142Y-77368571D01*
X124051428Y-76725714D02*
X124122857Y-76797142D01*
X124337142Y-76868571D01*
X124480000Y-76868571D01*
X124694285Y-76797142D01*
X124837142Y-76654285D01*
X124908571Y-76511428D01*
X124980000Y-76225714D01*
X124980000Y-76011428D01*
X124908571Y-75725714D01*
X124837142Y-75582857D01*
X124694285Y-75440000D01*
X124480000Y-75368571D01*
X124337142Y-75368571D01*
X124122857Y-75440000D01*
X124051428Y-75511428D01*
X123408571Y-76868571D02*
X123408571Y-75868571D01*
X123408571Y-76154285D02*
X123337142Y-76011428D01*
X123265714Y-75940000D01*
X123122857Y-75868571D01*
X122980000Y-75868571D01*
X122480000Y-76868571D02*
X122480000Y-75868571D01*
X122480000Y-75368571D02*
X122551428Y-75440000D01*
X122480000Y-75511428D01*
X122408571Y-75440000D01*
X122480000Y-75368571D01*
X122480000Y-75511428D01*
X121837142Y-76797142D02*
X121694285Y-76868571D01*
X121408571Y-76868571D01*
X121265714Y-76797142D01*
X121194285Y-76654285D01*
X121194285Y-76582857D01*
X121265714Y-76440000D01*
X121408571Y-76368571D01*
X121622857Y-76368571D01*
X121765714Y-76297142D01*
X121837142Y-76154285D01*
X121837142Y-76082857D01*
X121765714Y-75940000D01*
X121622857Y-75868571D01*
X121408571Y-75868571D01*
X121265714Y-75940000D01*
X120765714Y-75868571D02*
X120194285Y-75868571D01*
X120551428Y-75368571D02*
X120551428Y-76654285D01*
X120480000Y-76797142D01*
X120337142Y-76868571D01*
X120194285Y-76868571D01*
X119694285Y-76868571D02*
X119694285Y-75868571D01*
X119694285Y-75368571D02*
X119765714Y-75440000D01*
X119694285Y-75511428D01*
X119622857Y-75440000D01*
X119694285Y-75368571D01*
X119694285Y-75511428D01*
X118337142Y-76868571D02*
X118337142Y-76082857D01*
X118408571Y-75940000D01*
X118551428Y-75868571D01*
X118837142Y-75868571D01*
X118980000Y-75940000D01*
X118337142Y-76797142D02*
X118480000Y-76868571D01*
X118837142Y-76868571D01*
X118980000Y-76797142D01*
X119051428Y-76654285D01*
X119051428Y-76511428D01*
X118980000Y-76368571D01*
X118837142Y-76297142D01*
X118480000Y-76297142D01*
X118337142Y-76225714D01*
X117622857Y-75868571D02*
X117622857Y-76868571D01*
X117622857Y-76011428D02*
X117551428Y-75940000D01*
X117408571Y-75868571D01*
X117194285Y-75868571D01*
X117051428Y-75940000D01*
X116980000Y-76082857D01*
X116980000Y-76868571D01*
X116051428Y-76868571D02*
X116194285Y-76797142D01*
X116265714Y-76725714D01*
X116337142Y-76582857D01*
X116337142Y-76154285D01*
X116265714Y-76011428D01*
X116194285Y-75940000D01*
X116051428Y-75868571D01*
X115837142Y-75868571D01*
X115694285Y-75940000D01*
X115622857Y-76011428D01*
X115551428Y-76154285D01*
X115551428Y-76582857D01*
X115622857Y-76725714D01*
X115694285Y-76797142D01*
X115837142Y-76868571D01*
X116051428Y-76868571D01*
X113837142Y-76797142D02*
X113622857Y-76868571D01*
X113265714Y-76868571D01*
X113122857Y-76797142D01*
X113051428Y-76725714D01*
X112980000Y-76582857D01*
X112980000Y-76440000D01*
X113051428Y-76297142D01*
X113122857Y-76225714D01*
X113265714Y-76154285D01*
X113551428Y-76082857D01*
X113694285Y-76011428D01*
X113765714Y-75940000D01*
X113837142Y-75797142D01*
X113837142Y-75654285D01*
X113765714Y-75511428D01*
X113694285Y-75440000D01*
X113551428Y-75368571D01*
X113194285Y-75368571D01*
X112980000Y-75440000D01*
X136658571Y-79418571D02*
X136658571Y-77918571D01*
X135801428Y-79418571D01*
X135801428Y-77918571D01*
X134872857Y-79418571D02*
X135015714Y-79347142D01*
X135087142Y-79275714D01*
X135158571Y-79132857D01*
X135158571Y-78704285D01*
X135087142Y-78561428D01*
X135015714Y-78490000D01*
X134872857Y-78418571D01*
X134658571Y-78418571D01*
X134515714Y-78490000D01*
X134444285Y-78561428D01*
X134372857Y-78704285D01*
X134372857Y-79132857D01*
X134444285Y-79275714D01*
X134515714Y-79347142D01*
X134658571Y-79418571D01*
X134872857Y-79418571D01*
X133872857Y-78418571D02*
X133515714Y-79418571D01*
X133158571Y-78418571D01*
X132015714Y-79347142D02*
X132158571Y-79418571D01*
X132444285Y-79418571D01*
X132587142Y-79347142D01*
X132658571Y-79204285D01*
X132658571Y-78632857D01*
X132587142Y-78490000D01*
X132444285Y-78418571D01*
X132158571Y-78418571D01*
X132015714Y-78490000D01*
X131944285Y-78632857D01*
X131944285Y-78775714D01*
X132658571Y-78918571D01*
X131301428Y-79418571D02*
X131301428Y-78418571D01*
X131301428Y-78561428D02*
X131230000Y-78490000D01*
X131087142Y-78418571D01*
X130872857Y-78418571D01*
X130730000Y-78490000D01*
X130658571Y-78632857D01*
X130658571Y-79418571D01*
X130658571Y-78632857D02*
X130587142Y-78490000D01*
X130444285Y-78418571D01*
X130230000Y-78418571D01*
X130087142Y-78490000D01*
X130015714Y-78632857D01*
X130015714Y-79418571D01*
X129301428Y-79418571D02*
X129301428Y-77918571D01*
X129301428Y-78490000D02*
X129158571Y-78418571D01*
X128872857Y-78418571D01*
X128730000Y-78490000D01*
X128658571Y-78561428D01*
X128587142Y-78704285D01*
X128587142Y-79132857D01*
X128658571Y-79275714D01*
X128730000Y-79347142D01*
X128872857Y-79418571D01*
X129158571Y-79418571D01*
X129301428Y-79347142D01*
X127372857Y-79347142D02*
X127515714Y-79418571D01*
X127801428Y-79418571D01*
X127944285Y-79347142D01*
X128015714Y-79204285D01*
X128015714Y-78632857D01*
X127944285Y-78490000D01*
X127801428Y-78418571D01*
X127515714Y-78418571D01*
X127372857Y-78490000D01*
X127301428Y-78632857D01*
X127301428Y-78775714D01*
X128015714Y-78918571D01*
X126658571Y-79418571D02*
X126658571Y-78418571D01*
X126658571Y-78704285D02*
X126587142Y-78561428D01*
X126515714Y-78490000D01*
X126372857Y-78418571D01*
X126230000Y-78418571D01*
X124372857Y-78561428D02*
X124515714Y-78490000D01*
X124587142Y-78418571D01*
X124658571Y-78275714D01*
X124658571Y-78204285D01*
X124587142Y-78061428D01*
X124515714Y-77990000D01*
X124372857Y-77918571D01*
X124087142Y-77918571D01*
X123944285Y-77990000D01*
X123872857Y-78061428D01*
X123801428Y-78204285D01*
X123801428Y-78275714D01*
X123872857Y-78418571D01*
X123944285Y-78490000D01*
X124087142Y-78561428D01*
X124372857Y-78561428D01*
X124515714Y-78632857D01*
X124587142Y-78704285D01*
X124658571Y-78847142D01*
X124658571Y-79132857D01*
X124587142Y-79275714D01*
X124515714Y-79347142D01*
X124372857Y-79418571D01*
X124087142Y-79418571D01*
X123944285Y-79347142D01*
X123872857Y-79275714D01*
X123801428Y-79132857D01*
X123801428Y-78847142D01*
X123872857Y-78704285D01*
X123944285Y-78632857D01*
X124087142Y-78561428D01*
X123372857Y-78418571D02*
X122801428Y-78418571D01*
X123158571Y-77918571D02*
X123158571Y-79204285D01*
X123087142Y-79347142D01*
X122944285Y-79418571D01*
X122801428Y-79418571D01*
X122301428Y-79418571D02*
X122301428Y-77918571D01*
X121658571Y-79418571D02*
X121658571Y-78632857D01*
X121730000Y-78490000D01*
X121872857Y-78418571D01*
X122087142Y-78418571D01*
X122230000Y-78490000D01*
X122301428Y-78561428D01*
X119872857Y-78061428D02*
X119801428Y-77990000D01*
X119658571Y-77918571D01*
X119301428Y-77918571D01*
X119158571Y-77990000D01*
X119087142Y-78061428D01*
X119015714Y-78204285D01*
X119015714Y-78347142D01*
X119087142Y-78561428D01*
X119944285Y-79418571D01*
X119015714Y-79418571D01*
X118087142Y-77918571D02*
X117944285Y-77918571D01*
X117801428Y-77990000D01*
X117730000Y-78061428D01*
X117658571Y-78204285D01*
X117587142Y-78490000D01*
X117587142Y-78847142D01*
X117658571Y-79132857D01*
X117730000Y-79275714D01*
X117801428Y-79347142D01*
X117944285Y-79418571D01*
X118087142Y-79418571D01*
X118230000Y-79347142D01*
X118301428Y-79275714D01*
X118372857Y-79132857D01*
X118444285Y-78847142D01*
X118444285Y-78490000D01*
X118372857Y-78204285D01*
X118301428Y-78061428D01*
X118230000Y-77990000D01*
X118087142Y-77918571D01*
X117015714Y-78061428D02*
X116944285Y-77990000D01*
X116801428Y-77918571D01*
X116444285Y-77918571D01*
X116301428Y-77990000D01*
X116230000Y-78061428D01*
X116158571Y-78204285D01*
X116158571Y-78347142D01*
X116230000Y-78561428D01*
X117087142Y-79418571D01*
X116158571Y-79418571D01*
X115658571Y-77918571D02*
X114730000Y-77918571D01*
X115230000Y-78490000D01*
X115015714Y-78490000D01*
X114872857Y-78561428D01*
X114801428Y-78632857D01*
X114730000Y-78775714D01*
X114730000Y-79132857D01*
X114801428Y-79275714D01*
X114872857Y-79347142D01*
X115015714Y-79418571D01*
X115444285Y-79418571D01*
X115587142Y-79347142D01*
X115658571Y-79275714D01*
X141158571Y-80468571D02*
X140158571Y-81968571D01*
X140158571Y-80468571D02*
X141158571Y-81968571D01*
X139587142Y-81968571D02*
X139587142Y-80468571D01*
X138730000Y-81968571D01*
X138730000Y-80468571D01*
X137730000Y-80468571D02*
X137444285Y-80468571D01*
X137301428Y-80540000D01*
X137158571Y-80682857D01*
X137087142Y-80968571D01*
X137087142Y-81468571D01*
X137158571Y-81754285D01*
X137301428Y-81897142D01*
X137444285Y-81968571D01*
X137730000Y-81968571D01*
X137872857Y-81897142D01*
X138015714Y-81754285D01*
X138087142Y-81468571D01*
X138087142Y-80968571D01*
X138015714Y-80682857D01*
X137872857Y-80540000D01*
X137730000Y-80468571D01*
X135587142Y-81968571D02*
X136087142Y-81254285D01*
X136444285Y-81968571D02*
X136444285Y-80468571D01*
X135872857Y-80468571D01*
X135730000Y-80540000D01*
X135658571Y-80611428D01*
X135587142Y-80754285D01*
X135587142Y-80968571D01*
X135658571Y-81111428D01*
X135730000Y-81182857D01*
X135872857Y-81254285D01*
X136444285Y-81254285D01*
X133015714Y-80540000D02*
X133158571Y-80468571D01*
X133372857Y-80468571D01*
X133587142Y-80540000D01*
X133730000Y-80682857D01*
X133801428Y-80825714D01*
X133872857Y-81111428D01*
X133872857Y-81325714D01*
X133801428Y-81611428D01*
X133730000Y-81754285D01*
X133587142Y-81897142D01*
X133372857Y-81968571D01*
X133230000Y-81968571D01*
X133015714Y-81897142D01*
X132944285Y-81825714D01*
X132944285Y-81325714D01*
X133230000Y-81325714D01*
X131658571Y-81968571D02*
X131658571Y-81182857D01*
X131730000Y-81040000D01*
X131872857Y-80968571D01*
X132158571Y-80968571D01*
X132301428Y-81040000D01*
X131658571Y-81897142D02*
X131801428Y-81968571D01*
X132158571Y-81968571D01*
X132301428Y-81897142D01*
X132372857Y-81754285D01*
X132372857Y-81611428D01*
X132301428Y-81468571D01*
X132158571Y-81397142D01*
X131801428Y-81397142D01*
X131658571Y-81325714D01*
X131158571Y-80968571D02*
X130587142Y-80968571D01*
X130944285Y-80468571D02*
X130944285Y-81754285D01*
X130872857Y-81897142D01*
X130730000Y-81968571D01*
X130587142Y-81968571D01*
X129515714Y-81897142D02*
X129658571Y-81968571D01*
X129944285Y-81968571D01*
X130087142Y-81897142D01*
X130158571Y-81754285D01*
X130158571Y-81182857D01*
X130087142Y-81040000D01*
X129944285Y-80968571D01*
X129658571Y-80968571D01*
X129515714Y-81040000D01*
X129444285Y-81182857D01*
X129444285Y-81325714D01*
X130158571Y-81468571D01*
X127801428Y-80968571D02*
X127515714Y-81968571D01*
X127230000Y-81254285D01*
X126944285Y-81968571D01*
X126658571Y-80968571D01*
X126087142Y-81968571D02*
X126087142Y-80968571D01*
X126087142Y-80468571D02*
X126158571Y-80540000D01*
X126087142Y-80611428D01*
X126015714Y-80540000D01*
X126087142Y-80468571D01*
X126087142Y-80611428D01*
X125587142Y-80968571D02*
X125015714Y-80968571D01*
X125372857Y-80468571D02*
X125372857Y-81754285D01*
X125301428Y-81897142D01*
X125158571Y-81968571D01*
X125015714Y-81968571D01*
X124515714Y-81968571D02*
X124515714Y-80468571D01*
X123872857Y-81968571D02*
X123872857Y-81182857D01*
X123944285Y-81040000D01*
X124087142Y-80968571D01*
X124301428Y-80968571D01*
X124444285Y-81040000D01*
X124515714Y-81111428D01*
X122230000Y-80468571D02*
X121372857Y-80468571D01*
X121801428Y-81968571D02*
X121801428Y-80468571D01*
X120872857Y-81968571D02*
X120872857Y-80968571D01*
X120872857Y-81254285D02*
X120801428Y-81111428D01*
X120730000Y-81040000D01*
X120587142Y-80968571D01*
X120444285Y-80968571D01*
X119301428Y-81968571D02*
X119301428Y-81182857D01*
X119372857Y-81040000D01*
X119515714Y-80968571D01*
X119801428Y-80968571D01*
X119944285Y-81040000D01*
X119301428Y-81897142D02*
X119444285Y-81968571D01*
X119801428Y-81968571D01*
X119944285Y-81897142D01*
X120015714Y-81754285D01*
X120015714Y-81611428D01*
X119944285Y-81468571D01*
X119801428Y-81397142D01*
X119444285Y-81397142D01*
X119301428Y-81325714D01*
X118587142Y-80968571D02*
X118587142Y-81968571D01*
X118587142Y-81111428D02*
X118515714Y-81040000D01*
X118372857Y-80968571D01*
X118158571Y-80968571D01*
X118015714Y-81040000D01*
X117944285Y-81182857D01*
X117944285Y-81968571D01*
X117301428Y-81897142D02*
X117158571Y-81968571D01*
X116872857Y-81968571D01*
X116730000Y-81897142D01*
X116658571Y-81754285D01*
X116658571Y-81682857D01*
X116730000Y-81540000D01*
X116872857Y-81468571D01*
X117087142Y-81468571D01*
X117230000Y-81397142D01*
X117301428Y-81254285D01*
X117301428Y-81182857D01*
X117230000Y-81040000D01*
X117087142Y-80968571D01*
X116872857Y-80968571D01*
X116730000Y-81040000D01*
X116015714Y-81968571D02*
X116015714Y-80968571D01*
X116015714Y-80468571D02*
X116087142Y-80540000D01*
X116015714Y-80611428D01*
X115944285Y-80540000D01*
X116015714Y-80468571D01*
X116015714Y-80611428D01*
X115372857Y-81897142D02*
X115230000Y-81968571D01*
X114944285Y-81968571D01*
X114801428Y-81897142D01*
X114730000Y-81754285D01*
X114730000Y-81682857D01*
X114801428Y-81540000D01*
X114944285Y-81468571D01*
X115158571Y-81468571D01*
X115301428Y-81397142D01*
X115372857Y-81254285D01*
X115372857Y-81182857D01*
X115301428Y-81040000D01*
X115158571Y-80968571D01*
X114944285Y-80968571D01*
X114801428Y-81040000D01*
X114301428Y-80968571D02*
X113730000Y-80968571D01*
X114087142Y-80468571D02*
X114087142Y-81754285D01*
X114015714Y-81897142D01*
X113872857Y-81968571D01*
X113730000Y-81968571D01*
X113015714Y-81968571D02*
X113158571Y-81897142D01*
X113230000Y-81825714D01*
X113301428Y-81682857D01*
X113301428Y-81254285D01*
X113230000Y-81111428D01*
X113158571Y-81040000D01*
X113015714Y-80968571D01*
X112801428Y-80968571D01*
X112658571Y-81040000D01*
X112587142Y-81111428D01*
X112515714Y-81254285D01*
X112515714Y-81682857D01*
X112587142Y-81825714D01*
X112658571Y-81897142D01*
X112801428Y-81968571D01*
X113015714Y-81968571D01*
X111872857Y-81968571D02*
X111872857Y-80968571D01*
X111872857Y-81254285D02*
X111801428Y-81111428D01*
X111730000Y-81040000D01*
X111587142Y-80968571D01*
X111444285Y-80968571D01*
X111015714Y-81897142D02*
X110872857Y-81968571D01*
X110587142Y-81968571D01*
X110444285Y-81897142D01*
X110372857Y-81754285D01*
X110372857Y-81682857D01*
X110444285Y-81540000D01*
X110587142Y-81468571D01*
X110801428Y-81468571D01*
X110944285Y-81397142D01*
X111015714Y-81254285D01*
X111015714Y-81182857D01*
X110944285Y-81040000D01*
X110801428Y-80968571D01*
X110587142Y-80968571D01*
X110444285Y-81040000D01*
%LPC*%
D11*
X165875001Y-91185001D03*
D12*
X110275001Y-91185001D03*
D13*
X122175001Y-91185001D03*
X153975001Y-91185001D03*
D14*
X110705001Y-112465001D03*
X111975001Y-112465001D03*
D15*
X109435001Y-112465001D03*
D14*
X117215001Y-112465001D03*
X118485001Y-112465001D03*
D15*
X115945001Y-112465001D03*
D14*
X123725001Y-112465001D03*
X124995001Y-112465001D03*
D15*
X122455001Y-112465001D03*
X128965001Y-112465001D03*
D14*
X131505001Y-112465001D03*
X130235001Y-112465001D03*
D15*
X135475001Y-112465001D03*
D14*
X138015001Y-112465001D03*
X136745001Y-112465001D03*
D16*
X177625001Y-78185001D03*
X170825001Y-78185001D03*
X177625001Y-88900000D03*
X170825001Y-88900000D03*
M02*
