G04 #@! TF.GenerationSoftware,KiCad,Pcbnew,5.1.9+dfsg1-1+deb11u1*
G04 #@! TF.CreationDate,2023-11-08T12:18:59-05:00*
G04 #@! TF.ProjectId,Unit1-04,556e6974-312d-4303-942e-6b696361645f,rev?*
G04 #@! TF.SameCoordinates,Original*
G04 #@! TF.FileFunction,Copper,L2,Bot*
G04 #@! TF.FilePolarity,Positive*
%FSLAX46Y46*%
G04 Gerber Fmt 4.6, Leading zero omitted, Abs format (unit mm)*
G04 Created by KiCad (PCBNEW 5.1.9+dfsg1-1+deb11u1) date 2023-11-08 12:18:59*
%MOMM*%
%LPD*%
G01*
G04 APERTURE LIST*
G04 #@! TA.AperFunction,ComponentPad*
%ADD10C,2.600000*%
G04 #@! TD*
G04 #@! TA.AperFunction,ComponentPad*
%ADD11R,2.600000X2.600000*%
G04 #@! TD*
G04 #@! TA.AperFunction,ComponentPad*
%ADD12O,1.050000X1.500000*%
G04 #@! TD*
G04 #@! TA.AperFunction,ComponentPad*
%ADD13R,1.050000X1.500000*%
G04 #@! TD*
G04 #@! TA.AperFunction,ViaPad*
%ADD14C,0.800000*%
G04 #@! TD*
G04 #@! TA.AperFunction,Conductor*
%ADD15C,0.250000*%
G04 #@! TD*
G04 #@! TA.AperFunction,NonConductor*
%ADD16C,0.254000*%
G04 #@! TD*
G04 #@! TA.AperFunction,NonConductor*
%ADD17C,0.100000*%
G04 #@! TD*
G04 APERTURE END LIST*
D10*
X165875001Y-91185001D03*
D11*
X110275001Y-91185001D03*
D12*
X110705001Y-112465001D03*
X111975001Y-112465001D03*
D13*
X109435001Y-112465001D03*
D12*
X117215001Y-112465001D03*
X118485001Y-112465001D03*
D13*
X115945001Y-112465001D03*
D12*
X123725001Y-112465001D03*
X124995001Y-112465001D03*
D13*
X122455001Y-112465001D03*
X128965001Y-112465001D03*
D12*
X131505001Y-112465001D03*
X130235001Y-112465001D03*
D13*
X135475001Y-112465001D03*
D12*
X138015001Y-112465001D03*
X136745001Y-112465001D03*
D14*
X175373288Y-87693552D03*
X165875001Y-91185001D03*
X119380000Y-110490000D03*
X118485001Y-112465001D03*
X110560003Y-112114991D03*
X144780000Y-109220000D03*
X148590000Y-109220000D03*
X157480000Y-113030000D03*
X128965001Y-112465001D03*
X122455001Y-112465001D03*
X109435001Y-112465001D03*
X148590000Y-107950000D03*
X123725001Y-112465001D03*
X153670000Y-114300000D03*
X127839999Y-112850000D03*
X151130000Y-115570000D03*
X127000000Y-113575000D03*
X153670000Y-115570000D03*
X136745001Y-112465001D03*
X170180000Y-74710001D03*
X152400000Y-109220000D03*
D15*
X171881839Y-91185001D02*
X165875001Y-91185001D01*
X175373288Y-87693552D02*
X171881839Y-91185001D01*
X118485001Y-113465001D02*
X118485001Y-112465001D01*
X118409991Y-113540011D02*
X118485001Y-113465001D01*
X108650009Y-113540011D02*
X118409991Y-113540011D01*
X108585000Y-113475002D02*
X108650009Y-113540011D01*
X108585000Y-111455000D02*
X108585000Y-113475002D01*
X109550000Y-110490000D02*
X108585000Y-111455000D01*
X119380000Y-110490000D02*
X109550000Y-110490000D01*
X110705001Y-112259989D02*
X110560003Y-112114991D01*
X110705001Y-112465001D02*
X110705001Y-112259989D01*
X144780000Y-109220000D02*
X148590000Y-109220000D01*
X111975001Y-112465001D02*
X115945001Y-112465001D01*
X128965001Y-113465001D02*
X128965001Y-112465001D01*
X129040011Y-113540011D02*
X128965001Y-113465001D01*
X156969989Y-113540011D02*
X129040011Y-113540011D01*
X157480000Y-113030000D02*
X156969989Y-113540011D01*
X122455001Y-111465001D02*
X122455001Y-112465001D01*
X122530011Y-111389991D02*
X122455001Y-111465001D01*
X127889991Y-111389991D02*
X122530011Y-111389991D01*
X128965001Y-112465001D02*
X127889991Y-111389991D01*
X109435001Y-111465001D02*
X109435001Y-112465001D01*
X109510011Y-111389991D02*
X109435001Y-111465001D01*
X121379991Y-111389991D02*
X109510011Y-111389991D01*
X122455001Y-112465001D02*
X121379991Y-111389991D01*
X123725001Y-113055003D02*
X123725001Y-112465001D01*
X122789983Y-113990021D02*
X123725001Y-113055003D01*
X108463609Y-113990021D02*
X122789983Y-113990021D01*
X108134991Y-113661403D02*
X108463609Y-113990021D01*
X108134990Y-111268600D02*
X108134991Y-113661403D01*
X111453590Y-107950000D02*
X108134990Y-111268600D01*
X148590000Y-107950000D02*
X111453590Y-107950000D01*
X127839999Y-113341997D02*
X127839999Y-112850000D01*
X128798002Y-114300000D02*
X127839999Y-113341997D01*
X153670000Y-114300000D02*
X128798002Y-114300000D01*
X127455000Y-112465001D02*
X127839999Y-112850000D01*
X124995001Y-112465001D02*
X127455000Y-112465001D01*
X128995000Y-115570000D02*
X127000000Y-113575000D01*
X151130000Y-115570000D02*
X128995000Y-115570000D01*
X136745001Y-111465001D02*
X136745001Y-112465001D01*
X136820011Y-111389991D02*
X136745001Y-111465001D01*
X156912993Y-111389991D02*
X136820011Y-111389991D01*
X158205001Y-112681999D02*
X156912993Y-111389991D01*
X158205001Y-113378001D02*
X158205001Y-112681999D01*
X156013002Y-115570000D02*
X158205001Y-113378001D01*
X153670000Y-115570000D02*
X156013002Y-115570000D01*
X156200002Y-88689999D02*
X170180000Y-74710001D01*
X156200002Y-105419998D02*
X156200002Y-88689999D01*
X152400000Y-109220000D02*
X156200002Y-105419998D01*
D16*
X180213000Y-116713000D02*
X106807000Y-116713000D01*
X106807000Y-111268600D01*
X107371314Y-111268600D01*
X107374990Y-111305923D01*
X107374992Y-113624071D01*
X107371315Y-113661403D01*
X107374992Y-113698735D01*
X107374992Y-113698736D01*
X107385989Y-113810389D01*
X107393132Y-113833937D01*
X107429445Y-113953649D01*
X107500017Y-114085679D01*
X107543782Y-114139006D01*
X107594991Y-114201404D01*
X107623989Y-114225202D01*
X107899805Y-114501018D01*
X107923608Y-114530022D01*
X108039333Y-114624995D01*
X108171362Y-114695567D01*
X108314623Y-114739024D01*
X108426276Y-114750021D01*
X108426285Y-114750021D01*
X108463608Y-114753697D01*
X108500931Y-114750021D01*
X122752661Y-114750021D01*
X122789983Y-114753697D01*
X122827305Y-114750021D01*
X122827316Y-114750021D01*
X122938969Y-114739024D01*
X123082230Y-114695567D01*
X123214259Y-114624995D01*
X123329984Y-114530022D01*
X123353787Y-114501019D01*
X124051717Y-113803089D01*
X124171061Y-113766886D01*
X124360002Y-113665895D01*
X124548942Y-113766886D01*
X124767602Y-113833216D01*
X124995001Y-113855613D01*
X125222401Y-113833216D01*
X125441061Y-113766886D01*
X125642580Y-113659172D01*
X125819213Y-113514213D01*
X125964172Y-113337580D01*
X126024346Y-113225001D01*
X126024698Y-113225001D01*
X126004774Y-113273102D01*
X125965000Y-113473061D01*
X125965000Y-113676939D01*
X126004774Y-113876898D01*
X126082795Y-114065256D01*
X126196063Y-114234774D01*
X126340226Y-114378937D01*
X126509744Y-114492205D01*
X126698102Y-114570226D01*
X126898061Y-114610000D01*
X126960199Y-114610000D01*
X128431201Y-116081003D01*
X128454999Y-116110001D01*
X128483997Y-116133799D01*
X128570723Y-116204974D01*
X128702753Y-116275546D01*
X128846014Y-116319003D01*
X128957667Y-116330000D01*
X128957676Y-116330000D01*
X128994999Y-116333676D01*
X129032322Y-116330000D01*
X150426289Y-116330000D01*
X150470226Y-116373937D01*
X150639744Y-116487205D01*
X150828102Y-116565226D01*
X151028061Y-116605000D01*
X151231939Y-116605000D01*
X151431898Y-116565226D01*
X151620256Y-116487205D01*
X151789774Y-116373937D01*
X151933937Y-116229774D01*
X152047205Y-116060256D01*
X152125226Y-115871898D01*
X152165000Y-115671939D01*
X152165000Y-115468061D01*
X152125226Y-115268102D01*
X152047205Y-115079744D01*
X152034013Y-115060000D01*
X152765987Y-115060000D01*
X152752795Y-115079744D01*
X152674774Y-115268102D01*
X152635000Y-115468061D01*
X152635000Y-115671939D01*
X152674774Y-115871898D01*
X152752795Y-116060256D01*
X152866063Y-116229774D01*
X153010226Y-116373937D01*
X153179744Y-116487205D01*
X153368102Y-116565226D01*
X153568061Y-116605000D01*
X153771939Y-116605000D01*
X153971898Y-116565226D01*
X154160256Y-116487205D01*
X154329774Y-116373937D01*
X154373711Y-116330000D01*
X155975680Y-116330000D01*
X156013002Y-116333676D01*
X156050324Y-116330000D01*
X156050335Y-116330000D01*
X156161988Y-116319003D01*
X156305249Y-116275546D01*
X156437278Y-116204974D01*
X156553003Y-116110001D01*
X156576806Y-116080997D01*
X158716005Y-113941799D01*
X158745002Y-113918002D01*
X158839975Y-113802277D01*
X158910547Y-113670248D01*
X158954004Y-113526987D01*
X158965001Y-113415334D01*
X158965001Y-113415326D01*
X158968677Y-113378001D01*
X158965001Y-113340676D01*
X158965001Y-112719321D01*
X158968677Y-112681998D01*
X158965001Y-112644675D01*
X158965001Y-112644666D01*
X158954004Y-112533013D01*
X158910547Y-112389752D01*
X158839975Y-112257723D01*
X158745002Y-112141998D01*
X158716004Y-112118200D01*
X157476797Y-110878994D01*
X157452994Y-110849990D01*
X157337269Y-110755017D01*
X157205240Y-110684445D01*
X157061979Y-110640988D01*
X156950326Y-110629991D01*
X156950315Y-110629991D01*
X156912993Y-110626315D01*
X156875671Y-110629991D01*
X136857333Y-110629991D01*
X136820010Y-110626315D01*
X136782688Y-110629991D01*
X136782678Y-110629991D01*
X136671025Y-110640988D01*
X136527764Y-110684445D01*
X136395735Y-110755017D01*
X136280010Y-110849990D01*
X136256207Y-110878994D01*
X136234004Y-110901197D01*
X136205000Y-110925000D01*
X136159653Y-110980256D01*
X136110027Y-111040725D01*
X136086141Y-111085413D01*
X136000001Y-111076929D01*
X134950001Y-111076929D01*
X134825519Y-111089189D01*
X134705821Y-111125499D01*
X134595507Y-111184464D01*
X134498816Y-111263816D01*
X134419464Y-111360507D01*
X134360499Y-111470821D01*
X134324189Y-111590519D01*
X134311929Y-111715001D01*
X134311929Y-112780011D01*
X132661748Y-112780011D01*
X132665001Y-112746979D01*
X132665001Y-112183022D01*
X132648216Y-112012601D01*
X132581886Y-111793941D01*
X132474172Y-111592422D01*
X132329213Y-111415789D01*
X132152579Y-111270830D01*
X131951060Y-111163116D01*
X131732400Y-111096786D01*
X131505001Y-111074389D01*
X131277601Y-111096786D01*
X131058941Y-111163116D01*
X130870001Y-111264107D01*
X130681060Y-111163116D01*
X130462400Y-111096786D01*
X130235001Y-111074389D01*
X130007601Y-111096786D01*
X129798903Y-111160094D01*
X129734181Y-111125499D01*
X129614483Y-111089189D01*
X129490001Y-111076929D01*
X128651730Y-111076929D01*
X128453795Y-110878993D01*
X128429992Y-110849990D01*
X128314267Y-110755017D01*
X128182238Y-110684445D01*
X128038977Y-110640988D01*
X127927324Y-110629991D01*
X127927313Y-110629991D01*
X127889991Y-110626315D01*
X127852669Y-110629991D01*
X122567333Y-110629991D01*
X122530010Y-110626315D01*
X122492688Y-110629991D01*
X122492678Y-110629991D01*
X122381025Y-110640988D01*
X122237764Y-110684445D01*
X122105735Y-110755017D01*
X121990010Y-110849990D01*
X121966207Y-110878994D01*
X121955001Y-110890200D01*
X121943795Y-110878993D01*
X121919992Y-110849990D01*
X121804267Y-110755017D01*
X121672238Y-110684445D01*
X121528977Y-110640988D01*
X121417324Y-110629991D01*
X121417313Y-110629991D01*
X121379991Y-110626315D01*
X121342669Y-110629991D01*
X120407431Y-110629991D01*
X120415000Y-110591939D01*
X120415000Y-110388061D01*
X120375226Y-110188102D01*
X120297205Y-109999744D01*
X120183937Y-109830226D01*
X120039774Y-109686063D01*
X119870256Y-109572795D01*
X119681898Y-109494774D01*
X119481939Y-109455000D01*
X119278061Y-109455000D01*
X119078102Y-109494774D01*
X118889744Y-109572795D01*
X118720226Y-109686063D01*
X118676289Y-109730000D01*
X110748392Y-109730000D01*
X111768392Y-108710000D01*
X143875987Y-108710000D01*
X143862795Y-108729744D01*
X143784774Y-108918102D01*
X143745000Y-109118061D01*
X143745000Y-109321939D01*
X143784774Y-109521898D01*
X143862795Y-109710256D01*
X143976063Y-109879774D01*
X144120226Y-110023937D01*
X144289744Y-110137205D01*
X144478102Y-110215226D01*
X144678061Y-110255000D01*
X144881939Y-110255000D01*
X145081898Y-110215226D01*
X145270256Y-110137205D01*
X145439774Y-110023937D01*
X145483711Y-109980000D01*
X147886289Y-109980000D01*
X147930226Y-110023937D01*
X148099744Y-110137205D01*
X148288102Y-110215226D01*
X148488061Y-110255000D01*
X148691939Y-110255000D01*
X148891898Y-110215226D01*
X149080256Y-110137205D01*
X149249774Y-110023937D01*
X149393937Y-109879774D01*
X149507205Y-109710256D01*
X149585226Y-109521898D01*
X149625000Y-109321939D01*
X149625000Y-109118061D01*
X151365000Y-109118061D01*
X151365000Y-109321939D01*
X151404774Y-109521898D01*
X151482795Y-109710256D01*
X151596063Y-109879774D01*
X151740226Y-110023937D01*
X151909744Y-110137205D01*
X152098102Y-110215226D01*
X152298061Y-110255000D01*
X152501939Y-110255000D01*
X152701898Y-110215226D01*
X152890256Y-110137205D01*
X153059774Y-110023937D01*
X153203937Y-109879774D01*
X153317205Y-109710256D01*
X153395226Y-109521898D01*
X153435000Y-109321939D01*
X153435000Y-109259801D01*
X156711006Y-105983796D01*
X156740003Y-105959999D01*
X156834976Y-105844274D01*
X156905548Y-105712245D01*
X156949005Y-105568984D01*
X156960002Y-105457331D01*
X156960002Y-105457322D01*
X156963678Y-105419999D01*
X156960002Y-105382676D01*
X156960002Y-90994420D01*
X163940001Y-90994420D01*
X163940001Y-91375582D01*
X164014362Y-91749420D01*
X164160226Y-92101567D01*
X164371988Y-92418492D01*
X164641510Y-92688014D01*
X164958435Y-92899776D01*
X165310582Y-93045640D01*
X165684420Y-93120001D01*
X166065582Y-93120001D01*
X166439420Y-93045640D01*
X166791567Y-92899776D01*
X167108492Y-92688014D01*
X167378014Y-92418492D01*
X167589776Y-92101567D01*
X167654628Y-91945001D01*
X171844517Y-91945001D01*
X171881839Y-91948677D01*
X171919161Y-91945001D01*
X171919172Y-91945001D01*
X172030825Y-91934004D01*
X172174086Y-91890547D01*
X172306115Y-91819975D01*
X172421840Y-91725002D01*
X172445643Y-91695998D01*
X175348504Y-88793137D01*
X176540001Y-88793137D01*
X176540001Y-89006863D01*
X176581697Y-89216483D01*
X176663486Y-89413940D01*
X176782226Y-89591647D01*
X176933354Y-89742775D01*
X177111061Y-89861515D01*
X177308518Y-89943304D01*
X177518138Y-89985000D01*
X177731864Y-89985000D01*
X177941484Y-89943304D01*
X178138941Y-89861515D01*
X178316648Y-89742775D01*
X178467776Y-89591647D01*
X178586516Y-89413940D01*
X178668305Y-89216483D01*
X178710001Y-89006863D01*
X178710001Y-88793137D01*
X178668305Y-88583517D01*
X178586516Y-88386060D01*
X178467776Y-88208353D01*
X178316648Y-88057225D01*
X178138941Y-87938485D01*
X177941484Y-87856696D01*
X177731864Y-87815000D01*
X177518138Y-87815000D01*
X177308518Y-87856696D01*
X177111061Y-87938485D01*
X176933354Y-88057225D01*
X176782226Y-88208353D01*
X176663486Y-88386060D01*
X176581697Y-88583517D01*
X176540001Y-88793137D01*
X175348504Y-88793137D01*
X175413090Y-88728552D01*
X175475227Y-88728552D01*
X175675186Y-88688778D01*
X175863544Y-88610757D01*
X176033062Y-88497489D01*
X176177225Y-88353326D01*
X176290493Y-88183808D01*
X176368514Y-87995450D01*
X176408288Y-87795491D01*
X176408288Y-87591613D01*
X176368514Y-87391654D01*
X176290493Y-87203296D01*
X176177225Y-87033778D01*
X176033062Y-86889615D01*
X175863544Y-86776347D01*
X175675186Y-86698326D01*
X175475227Y-86658552D01*
X175271349Y-86658552D01*
X175071390Y-86698326D01*
X174883032Y-86776347D01*
X174713514Y-86889615D01*
X174569351Y-87033778D01*
X174456083Y-87203296D01*
X174378062Y-87391654D01*
X174338288Y-87591613D01*
X174338288Y-87653750D01*
X171567038Y-90425001D01*
X167654628Y-90425001D01*
X167589776Y-90268435D01*
X167378014Y-89951510D01*
X167108492Y-89681988D01*
X166791567Y-89470226D01*
X166439420Y-89324362D01*
X166065582Y-89250001D01*
X165684420Y-89250001D01*
X165310582Y-89324362D01*
X164958435Y-89470226D01*
X164641510Y-89681988D01*
X164371988Y-89951510D01*
X164160226Y-90268435D01*
X164014362Y-90620582D01*
X163940001Y-90994420D01*
X156960002Y-90994420D01*
X156960002Y-89004800D01*
X157171665Y-88793137D01*
X169740001Y-88793137D01*
X169740001Y-89006863D01*
X169781697Y-89216483D01*
X169863486Y-89413940D01*
X169982226Y-89591647D01*
X170133354Y-89742775D01*
X170311061Y-89861515D01*
X170508518Y-89943304D01*
X170718138Y-89985000D01*
X170931864Y-89985000D01*
X171141484Y-89943304D01*
X171338941Y-89861515D01*
X171516648Y-89742775D01*
X171667776Y-89591647D01*
X171786516Y-89413940D01*
X171868305Y-89216483D01*
X171910001Y-89006863D01*
X171910001Y-88793137D01*
X171868305Y-88583517D01*
X171786516Y-88386060D01*
X171667776Y-88208353D01*
X171516648Y-88057225D01*
X171338941Y-87938485D01*
X171141484Y-87856696D01*
X170931864Y-87815000D01*
X170718138Y-87815000D01*
X170508518Y-87856696D01*
X170311061Y-87938485D01*
X170133354Y-88057225D01*
X169982226Y-88208353D01*
X169863486Y-88386060D01*
X169781697Y-88583517D01*
X169740001Y-88793137D01*
X157171665Y-88793137D01*
X167886664Y-78078138D01*
X169740001Y-78078138D01*
X169740001Y-78291864D01*
X169781697Y-78501484D01*
X169863486Y-78698941D01*
X169982226Y-78876648D01*
X170133354Y-79027776D01*
X170311061Y-79146516D01*
X170508518Y-79228305D01*
X170718138Y-79270001D01*
X170931864Y-79270001D01*
X171141484Y-79228305D01*
X171338941Y-79146516D01*
X171516648Y-79027776D01*
X171667776Y-78876648D01*
X171786516Y-78698941D01*
X171868305Y-78501484D01*
X171910001Y-78291864D01*
X171910001Y-78078138D01*
X176540001Y-78078138D01*
X176540001Y-78291864D01*
X176581697Y-78501484D01*
X176663486Y-78698941D01*
X176782226Y-78876648D01*
X176933354Y-79027776D01*
X177111061Y-79146516D01*
X177308518Y-79228305D01*
X177518138Y-79270001D01*
X177731864Y-79270001D01*
X177941484Y-79228305D01*
X178138941Y-79146516D01*
X178316648Y-79027776D01*
X178467776Y-78876648D01*
X178586516Y-78698941D01*
X178668305Y-78501484D01*
X178710001Y-78291864D01*
X178710001Y-78078138D01*
X178668305Y-77868518D01*
X178586516Y-77671061D01*
X178467776Y-77493354D01*
X178316648Y-77342226D01*
X178138941Y-77223486D01*
X177941484Y-77141697D01*
X177731864Y-77100001D01*
X177518138Y-77100001D01*
X177308518Y-77141697D01*
X177111061Y-77223486D01*
X176933354Y-77342226D01*
X176782226Y-77493354D01*
X176663486Y-77671061D01*
X176581697Y-77868518D01*
X176540001Y-78078138D01*
X171910001Y-78078138D01*
X171868305Y-77868518D01*
X171786516Y-77671061D01*
X171667776Y-77493354D01*
X171516648Y-77342226D01*
X171338941Y-77223486D01*
X171141484Y-77141697D01*
X170931864Y-77100001D01*
X170718138Y-77100001D01*
X170508518Y-77141697D01*
X170311061Y-77223486D01*
X170133354Y-77342226D01*
X169982226Y-77493354D01*
X169863486Y-77671061D01*
X169781697Y-77868518D01*
X169740001Y-78078138D01*
X167886664Y-78078138D01*
X170219802Y-75745001D01*
X170281939Y-75745001D01*
X170481898Y-75705227D01*
X170670256Y-75627206D01*
X170839774Y-75513938D01*
X170983937Y-75369775D01*
X171097205Y-75200257D01*
X171175226Y-75011899D01*
X171215000Y-74811940D01*
X171215000Y-74608062D01*
X171175226Y-74408103D01*
X171097205Y-74219745D01*
X170983937Y-74050227D01*
X170839774Y-73906064D01*
X170670256Y-73792796D01*
X170481898Y-73714775D01*
X170281939Y-73675001D01*
X170078061Y-73675001D01*
X169878102Y-73714775D01*
X169689744Y-73792796D01*
X169520226Y-73906064D01*
X169376063Y-74050227D01*
X169262795Y-74219745D01*
X169184774Y-74408103D01*
X169145000Y-74608062D01*
X169145000Y-74670199D01*
X155689000Y-88126200D01*
X155660002Y-88149998D01*
X155636204Y-88178996D01*
X155636203Y-88178997D01*
X155565028Y-88265723D01*
X155494456Y-88397753D01*
X155464203Y-88497489D01*
X155451000Y-88541013D01*
X155440003Y-88652666D01*
X155436326Y-88689999D01*
X155440003Y-88727332D01*
X155440003Y-89115066D01*
X155175774Y-88938513D01*
X154714433Y-88747419D01*
X154224677Y-88650001D01*
X153725325Y-88650001D01*
X153235569Y-88747419D01*
X152774228Y-88938513D01*
X152359033Y-89215938D01*
X152005938Y-89569033D01*
X151728513Y-89984228D01*
X151537419Y-90445569D01*
X151440001Y-90935325D01*
X151440001Y-91434677D01*
X151537419Y-91924433D01*
X151728513Y-92385774D01*
X152005938Y-92800969D01*
X152359033Y-93154064D01*
X152774228Y-93431489D01*
X153235569Y-93622583D01*
X153725325Y-93720001D01*
X154224677Y-93720001D01*
X154714433Y-93622583D01*
X155175774Y-93431489D01*
X155440003Y-93254937D01*
X155440002Y-105105196D01*
X152360199Y-108185000D01*
X152298061Y-108185000D01*
X152098102Y-108224774D01*
X151909744Y-108302795D01*
X151740226Y-108416063D01*
X151596063Y-108560226D01*
X151482795Y-108729744D01*
X151404774Y-108918102D01*
X151365000Y-109118061D01*
X149625000Y-109118061D01*
X149585226Y-108918102D01*
X149507205Y-108729744D01*
X149410490Y-108585000D01*
X149507205Y-108440256D01*
X149585226Y-108251898D01*
X149625000Y-108051939D01*
X149625000Y-107848061D01*
X149585226Y-107648102D01*
X149507205Y-107459744D01*
X149393937Y-107290226D01*
X149249774Y-107146063D01*
X149080256Y-107032795D01*
X148891898Y-106954774D01*
X148691939Y-106915000D01*
X148488061Y-106915000D01*
X148288102Y-106954774D01*
X148099744Y-107032795D01*
X147930226Y-107146063D01*
X147886289Y-107190000D01*
X111490912Y-107190000D01*
X111453589Y-107186324D01*
X111416266Y-107190000D01*
X111416257Y-107190000D01*
X111304604Y-107200997D01*
X111161343Y-107244454D01*
X111029313Y-107315026D01*
X110945673Y-107383668D01*
X110913589Y-107409999D01*
X110889791Y-107438997D01*
X107623987Y-110704802D01*
X107594989Y-110728600D01*
X107571191Y-110757598D01*
X107500016Y-110844324D01*
X107446739Y-110943998D01*
X107429444Y-110976354D01*
X107385987Y-111119615D01*
X107374990Y-111231268D01*
X107374990Y-111231278D01*
X107371314Y-111268600D01*
X106807000Y-111268600D01*
X106807000Y-89885001D01*
X108336929Y-89885001D01*
X108336929Y-92485001D01*
X108349189Y-92609483D01*
X108385499Y-92729181D01*
X108444464Y-92839495D01*
X108523816Y-92936186D01*
X108620507Y-93015538D01*
X108730821Y-93074503D01*
X108850519Y-93110813D01*
X108975001Y-93123073D01*
X111575001Y-93123073D01*
X111699483Y-93110813D01*
X111819181Y-93074503D01*
X111929495Y-93015538D01*
X112026186Y-92936186D01*
X112105538Y-92839495D01*
X112164503Y-92729181D01*
X112200813Y-92609483D01*
X112213073Y-92485001D01*
X112213073Y-90935325D01*
X119640001Y-90935325D01*
X119640001Y-91434677D01*
X119737419Y-91924433D01*
X119928513Y-92385774D01*
X120205938Y-92800969D01*
X120559033Y-93154064D01*
X120974228Y-93431489D01*
X121435569Y-93622583D01*
X121925325Y-93720001D01*
X122424677Y-93720001D01*
X122914433Y-93622583D01*
X123375774Y-93431489D01*
X123790969Y-93154064D01*
X124144064Y-92800969D01*
X124421489Y-92385774D01*
X124612583Y-91924433D01*
X124710001Y-91434677D01*
X124710001Y-90935325D01*
X124612583Y-90445569D01*
X124421489Y-89984228D01*
X124144064Y-89569033D01*
X123790969Y-89215938D01*
X123375774Y-88938513D01*
X122914433Y-88747419D01*
X122424677Y-88650001D01*
X121925325Y-88650001D01*
X121435569Y-88747419D01*
X120974228Y-88938513D01*
X120559033Y-89215938D01*
X120205938Y-89569033D01*
X119928513Y-89984228D01*
X119737419Y-90445569D01*
X119640001Y-90935325D01*
X112213073Y-90935325D01*
X112213073Y-89885001D01*
X112200813Y-89760519D01*
X112164503Y-89640821D01*
X112105538Y-89530507D01*
X112026186Y-89433816D01*
X111929495Y-89354464D01*
X111819181Y-89295499D01*
X111699483Y-89259189D01*
X111575001Y-89246929D01*
X108975001Y-89246929D01*
X108850519Y-89259189D01*
X108730821Y-89295499D01*
X108620507Y-89354464D01*
X108523816Y-89433816D01*
X108444464Y-89530507D01*
X108385499Y-89640821D01*
X108349189Y-89760519D01*
X108336929Y-89885001D01*
X106807000Y-89885001D01*
X106807000Y-72517000D01*
X180213000Y-72517000D01*
X180213000Y-116713000D01*
G04 #@! TA.AperFunction,NonConductor*
D17*
G36*
X180213000Y-116713000D02*
G01*
X106807000Y-116713000D01*
X106807000Y-111268600D01*
X107371314Y-111268600D01*
X107374990Y-111305923D01*
X107374992Y-113624071D01*
X107371315Y-113661403D01*
X107374992Y-113698735D01*
X107374992Y-113698736D01*
X107385989Y-113810389D01*
X107393132Y-113833937D01*
X107429445Y-113953649D01*
X107500017Y-114085679D01*
X107543782Y-114139006D01*
X107594991Y-114201404D01*
X107623989Y-114225202D01*
X107899805Y-114501018D01*
X107923608Y-114530022D01*
X108039333Y-114624995D01*
X108171362Y-114695567D01*
X108314623Y-114739024D01*
X108426276Y-114750021D01*
X108426285Y-114750021D01*
X108463608Y-114753697D01*
X108500931Y-114750021D01*
X122752661Y-114750021D01*
X122789983Y-114753697D01*
X122827305Y-114750021D01*
X122827316Y-114750021D01*
X122938969Y-114739024D01*
X123082230Y-114695567D01*
X123214259Y-114624995D01*
X123329984Y-114530022D01*
X123353787Y-114501019D01*
X124051717Y-113803089D01*
X124171061Y-113766886D01*
X124360002Y-113665895D01*
X124548942Y-113766886D01*
X124767602Y-113833216D01*
X124995001Y-113855613D01*
X125222401Y-113833216D01*
X125441061Y-113766886D01*
X125642580Y-113659172D01*
X125819213Y-113514213D01*
X125964172Y-113337580D01*
X126024346Y-113225001D01*
X126024698Y-113225001D01*
X126004774Y-113273102D01*
X125965000Y-113473061D01*
X125965000Y-113676939D01*
X126004774Y-113876898D01*
X126082795Y-114065256D01*
X126196063Y-114234774D01*
X126340226Y-114378937D01*
X126509744Y-114492205D01*
X126698102Y-114570226D01*
X126898061Y-114610000D01*
X126960199Y-114610000D01*
X128431201Y-116081003D01*
X128454999Y-116110001D01*
X128483997Y-116133799D01*
X128570723Y-116204974D01*
X128702753Y-116275546D01*
X128846014Y-116319003D01*
X128957667Y-116330000D01*
X128957676Y-116330000D01*
X128994999Y-116333676D01*
X129032322Y-116330000D01*
X150426289Y-116330000D01*
X150470226Y-116373937D01*
X150639744Y-116487205D01*
X150828102Y-116565226D01*
X151028061Y-116605000D01*
X151231939Y-116605000D01*
X151431898Y-116565226D01*
X151620256Y-116487205D01*
X151789774Y-116373937D01*
X151933937Y-116229774D01*
X152047205Y-116060256D01*
X152125226Y-115871898D01*
X152165000Y-115671939D01*
X152165000Y-115468061D01*
X152125226Y-115268102D01*
X152047205Y-115079744D01*
X152034013Y-115060000D01*
X152765987Y-115060000D01*
X152752795Y-115079744D01*
X152674774Y-115268102D01*
X152635000Y-115468061D01*
X152635000Y-115671939D01*
X152674774Y-115871898D01*
X152752795Y-116060256D01*
X152866063Y-116229774D01*
X153010226Y-116373937D01*
X153179744Y-116487205D01*
X153368102Y-116565226D01*
X153568061Y-116605000D01*
X153771939Y-116605000D01*
X153971898Y-116565226D01*
X154160256Y-116487205D01*
X154329774Y-116373937D01*
X154373711Y-116330000D01*
X155975680Y-116330000D01*
X156013002Y-116333676D01*
X156050324Y-116330000D01*
X156050335Y-116330000D01*
X156161988Y-116319003D01*
X156305249Y-116275546D01*
X156437278Y-116204974D01*
X156553003Y-116110001D01*
X156576806Y-116080997D01*
X158716005Y-113941799D01*
X158745002Y-113918002D01*
X158839975Y-113802277D01*
X158910547Y-113670248D01*
X158954004Y-113526987D01*
X158965001Y-113415334D01*
X158965001Y-113415326D01*
X158968677Y-113378001D01*
X158965001Y-113340676D01*
X158965001Y-112719321D01*
X158968677Y-112681998D01*
X158965001Y-112644675D01*
X158965001Y-112644666D01*
X158954004Y-112533013D01*
X158910547Y-112389752D01*
X158839975Y-112257723D01*
X158745002Y-112141998D01*
X158716004Y-112118200D01*
X157476797Y-110878994D01*
X157452994Y-110849990D01*
X157337269Y-110755017D01*
X157205240Y-110684445D01*
X157061979Y-110640988D01*
X156950326Y-110629991D01*
X156950315Y-110629991D01*
X156912993Y-110626315D01*
X156875671Y-110629991D01*
X136857333Y-110629991D01*
X136820010Y-110626315D01*
X136782688Y-110629991D01*
X136782678Y-110629991D01*
X136671025Y-110640988D01*
X136527764Y-110684445D01*
X136395735Y-110755017D01*
X136280010Y-110849990D01*
X136256207Y-110878994D01*
X136234004Y-110901197D01*
X136205000Y-110925000D01*
X136159653Y-110980256D01*
X136110027Y-111040725D01*
X136086141Y-111085413D01*
X136000001Y-111076929D01*
X134950001Y-111076929D01*
X134825519Y-111089189D01*
X134705821Y-111125499D01*
X134595507Y-111184464D01*
X134498816Y-111263816D01*
X134419464Y-111360507D01*
X134360499Y-111470821D01*
X134324189Y-111590519D01*
X134311929Y-111715001D01*
X134311929Y-112780011D01*
X132661748Y-112780011D01*
X132665001Y-112746979D01*
X132665001Y-112183022D01*
X132648216Y-112012601D01*
X132581886Y-111793941D01*
X132474172Y-111592422D01*
X132329213Y-111415789D01*
X132152579Y-111270830D01*
X131951060Y-111163116D01*
X131732400Y-111096786D01*
X131505001Y-111074389D01*
X131277601Y-111096786D01*
X131058941Y-111163116D01*
X130870001Y-111264107D01*
X130681060Y-111163116D01*
X130462400Y-111096786D01*
X130235001Y-111074389D01*
X130007601Y-111096786D01*
X129798903Y-111160094D01*
X129734181Y-111125499D01*
X129614483Y-111089189D01*
X129490001Y-111076929D01*
X128651730Y-111076929D01*
X128453795Y-110878993D01*
X128429992Y-110849990D01*
X128314267Y-110755017D01*
X128182238Y-110684445D01*
X128038977Y-110640988D01*
X127927324Y-110629991D01*
X127927313Y-110629991D01*
X127889991Y-110626315D01*
X127852669Y-110629991D01*
X122567333Y-110629991D01*
X122530010Y-110626315D01*
X122492688Y-110629991D01*
X122492678Y-110629991D01*
X122381025Y-110640988D01*
X122237764Y-110684445D01*
X122105735Y-110755017D01*
X121990010Y-110849990D01*
X121966207Y-110878994D01*
X121955001Y-110890200D01*
X121943795Y-110878993D01*
X121919992Y-110849990D01*
X121804267Y-110755017D01*
X121672238Y-110684445D01*
X121528977Y-110640988D01*
X121417324Y-110629991D01*
X121417313Y-110629991D01*
X121379991Y-110626315D01*
X121342669Y-110629991D01*
X120407431Y-110629991D01*
X120415000Y-110591939D01*
X120415000Y-110388061D01*
X120375226Y-110188102D01*
X120297205Y-109999744D01*
X120183937Y-109830226D01*
X120039774Y-109686063D01*
X119870256Y-109572795D01*
X119681898Y-109494774D01*
X119481939Y-109455000D01*
X119278061Y-109455000D01*
X119078102Y-109494774D01*
X118889744Y-109572795D01*
X118720226Y-109686063D01*
X118676289Y-109730000D01*
X110748392Y-109730000D01*
X111768392Y-108710000D01*
X143875987Y-108710000D01*
X143862795Y-108729744D01*
X143784774Y-108918102D01*
X143745000Y-109118061D01*
X143745000Y-109321939D01*
X143784774Y-109521898D01*
X143862795Y-109710256D01*
X143976063Y-109879774D01*
X144120226Y-110023937D01*
X144289744Y-110137205D01*
X144478102Y-110215226D01*
X144678061Y-110255000D01*
X144881939Y-110255000D01*
X145081898Y-110215226D01*
X145270256Y-110137205D01*
X145439774Y-110023937D01*
X145483711Y-109980000D01*
X147886289Y-109980000D01*
X147930226Y-110023937D01*
X148099744Y-110137205D01*
X148288102Y-110215226D01*
X148488061Y-110255000D01*
X148691939Y-110255000D01*
X148891898Y-110215226D01*
X149080256Y-110137205D01*
X149249774Y-110023937D01*
X149393937Y-109879774D01*
X149507205Y-109710256D01*
X149585226Y-109521898D01*
X149625000Y-109321939D01*
X149625000Y-109118061D01*
X151365000Y-109118061D01*
X151365000Y-109321939D01*
X151404774Y-109521898D01*
X151482795Y-109710256D01*
X151596063Y-109879774D01*
X151740226Y-110023937D01*
X151909744Y-110137205D01*
X152098102Y-110215226D01*
X152298061Y-110255000D01*
X152501939Y-110255000D01*
X152701898Y-110215226D01*
X152890256Y-110137205D01*
X153059774Y-110023937D01*
X153203937Y-109879774D01*
X153317205Y-109710256D01*
X153395226Y-109521898D01*
X153435000Y-109321939D01*
X153435000Y-109259801D01*
X156711006Y-105983796D01*
X156740003Y-105959999D01*
X156834976Y-105844274D01*
X156905548Y-105712245D01*
X156949005Y-105568984D01*
X156960002Y-105457331D01*
X156960002Y-105457322D01*
X156963678Y-105419999D01*
X156960002Y-105382676D01*
X156960002Y-90994420D01*
X163940001Y-90994420D01*
X163940001Y-91375582D01*
X164014362Y-91749420D01*
X164160226Y-92101567D01*
X164371988Y-92418492D01*
X164641510Y-92688014D01*
X164958435Y-92899776D01*
X165310582Y-93045640D01*
X165684420Y-93120001D01*
X166065582Y-93120001D01*
X166439420Y-93045640D01*
X166791567Y-92899776D01*
X167108492Y-92688014D01*
X167378014Y-92418492D01*
X167589776Y-92101567D01*
X167654628Y-91945001D01*
X171844517Y-91945001D01*
X171881839Y-91948677D01*
X171919161Y-91945001D01*
X171919172Y-91945001D01*
X172030825Y-91934004D01*
X172174086Y-91890547D01*
X172306115Y-91819975D01*
X172421840Y-91725002D01*
X172445643Y-91695998D01*
X175348504Y-88793137D01*
X176540001Y-88793137D01*
X176540001Y-89006863D01*
X176581697Y-89216483D01*
X176663486Y-89413940D01*
X176782226Y-89591647D01*
X176933354Y-89742775D01*
X177111061Y-89861515D01*
X177308518Y-89943304D01*
X177518138Y-89985000D01*
X177731864Y-89985000D01*
X177941484Y-89943304D01*
X178138941Y-89861515D01*
X178316648Y-89742775D01*
X178467776Y-89591647D01*
X178586516Y-89413940D01*
X178668305Y-89216483D01*
X178710001Y-89006863D01*
X178710001Y-88793137D01*
X178668305Y-88583517D01*
X178586516Y-88386060D01*
X178467776Y-88208353D01*
X178316648Y-88057225D01*
X178138941Y-87938485D01*
X177941484Y-87856696D01*
X177731864Y-87815000D01*
X177518138Y-87815000D01*
X177308518Y-87856696D01*
X177111061Y-87938485D01*
X176933354Y-88057225D01*
X176782226Y-88208353D01*
X176663486Y-88386060D01*
X176581697Y-88583517D01*
X176540001Y-88793137D01*
X175348504Y-88793137D01*
X175413090Y-88728552D01*
X175475227Y-88728552D01*
X175675186Y-88688778D01*
X175863544Y-88610757D01*
X176033062Y-88497489D01*
X176177225Y-88353326D01*
X176290493Y-88183808D01*
X176368514Y-87995450D01*
X176408288Y-87795491D01*
X176408288Y-87591613D01*
X176368514Y-87391654D01*
X176290493Y-87203296D01*
X176177225Y-87033778D01*
X176033062Y-86889615D01*
X175863544Y-86776347D01*
X175675186Y-86698326D01*
X175475227Y-86658552D01*
X175271349Y-86658552D01*
X175071390Y-86698326D01*
X174883032Y-86776347D01*
X174713514Y-86889615D01*
X174569351Y-87033778D01*
X174456083Y-87203296D01*
X174378062Y-87391654D01*
X174338288Y-87591613D01*
X174338288Y-87653750D01*
X171567038Y-90425001D01*
X167654628Y-90425001D01*
X167589776Y-90268435D01*
X167378014Y-89951510D01*
X167108492Y-89681988D01*
X166791567Y-89470226D01*
X166439420Y-89324362D01*
X166065582Y-89250001D01*
X165684420Y-89250001D01*
X165310582Y-89324362D01*
X164958435Y-89470226D01*
X164641510Y-89681988D01*
X164371988Y-89951510D01*
X164160226Y-90268435D01*
X164014362Y-90620582D01*
X163940001Y-90994420D01*
X156960002Y-90994420D01*
X156960002Y-89004800D01*
X157171665Y-88793137D01*
X169740001Y-88793137D01*
X169740001Y-89006863D01*
X169781697Y-89216483D01*
X169863486Y-89413940D01*
X169982226Y-89591647D01*
X170133354Y-89742775D01*
X170311061Y-89861515D01*
X170508518Y-89943304D01*
X170718138Y-89985000D01*
X170931864Y-89985000D01*
X171141484Y-89943304D01*
X171338941Y-89861515D01*
X171516648Y-89742775D01*
X171667776Y-89591647D01*
X171786516Y-89413940D01*
X171868305Y-89216483D01*
X171910001Y-89006863D01*
X171910001Y-88793137D01*
X171868305Y-88583517D01*
X171786516Y-88386060D01*
X171667776Y-88208353D01*
X171516648Y-88057225D01*
X171338941Y-87938485D01*
X171141484Y-87856696D01*
X170931864Y-87815000D01*
X170718138Y-87815000D01*
X170508518Y-87856696D01*
X170311061Y-87938485D01*
X170133354Y-88057225D01*
X169982226Y-88208353D01*
X169863486Y-88386060D01*
X169781697Y-88583517D01*
X169740001Y-88793137D01*
X157171665Y-88793137D01*
X167886664Y-78078138D01*
X169740001Y-78078138D01*
X169740001Y-78291864D01*
X169781697Y-78501484D01*
X169863486Y-78698941D01*
X169982226Y-78876648D01*
X170133354Y-79027776D01*
X170311061Y-79146516D01*
X170508518Y-79228305D01*
X170718138Y-79270001D01*
X170931864Y-79270001D01*
X171141484Y-79228305D01*
X171338941Y-79146516D01*
X171516648Y-79027776D01*
X171667776Y-78876648D01*
X171786516Y-78698941D01*
X171868305Y-78501484D01*
X171910001Y-78291864D01*
X171910001Y-78078138D01*
X176540001Y-78078138D01*
X176540001Y-78291864D01*
X176581697Y-78501484D01*
X176663486Y-78698941D01*
X176782226Y-78876648D01*
X176933354Y-79027776D01*
X177111061Y-79146516D01*
X177308518Y-79228305D01*
X177518138Y-79270001D01*
X177731864Y-79270001D01*
X177941484Y-79228305D01*
X178138941Y-79146516D01*
X178316648Y-79027776D01*
X178467776Y-78876648D01*
X178586516Y-78698941D01*
X178668305Y-78501484D01*
X178710001Y-78291864D01*
X178710001Y-78078138D01*
X178668305Y-77868518D01*
X178586516Y-77671061D01*
X178467776Y-77493354D01*
X178316648Y-77342226D01*
X178138941Y-77223486D01*
X177941484Y-77141697D01*
X177731864Y-77100001D01*
X177518138Y-77100001D01*
X177308518Y-77141697D01*
X177111061Y-77223486D01*
X176933354Y-77342226D01*
X176782226Y-77493354D01*
X176663486Y-77671061D01*
X176581697Y-77868518D01*
X176540001Y-78078138D01*
X171910001Y-78078138D01*
X171868305Y-77868518D01*
X171786516Y-77671061D01*
X171667776Y-77493354D01*
X171516648Y-77342226D01*
X171338941Y-77223486D01*
X171141484Y-77141697D01*
X170931864Y-77100001D01*
X170718138Y-77100001D01*
X170508518Y-77141697D01*
X170311061Y-77223486D01*
X170133354Y-77342226D01*
X169982226Y-77493354D01*
X169863486Y-77671061D01*
X169781697Y-77868518D01*
X169740001Y-78078138D01*
X167886664Y-78078138D01*
X170219802Y-75745001D01*
X170281939Y-75745001D01*
X170481898Y-75705227D01*
X170670256Y-75627206D01*
X170839774Y-75513938D01*
X170983937Y-75369775D01*
X171097205Y-75200257D01*
X171175226Y-75011899D01*
X171215000Y-74811940D01*
X171215000Y-74608062D01*
X171175226Y-74408103D01*
X171097205Y-74219745D01*
X170983937Y-74050227D01*
X170839774Y-73906064D01*
X170670256Y-73792796D01*
X170481898Y-73714775D01*
X170281939Y-73675001D01*
X170078061Y-73675001D01*
X169878102Y-73714775D01*
X169689744Y-73792796D01*
X169520226Y-73906064D01*
X169376063Y-74050227D01*
X169262795Y-74219745D01*
X169184774Y-74408103D01*
X169145000Y-74608062D01*
X169145000Y-74670199D01*
X155689000Y-88126200D01*
X155660002Y-88149998D01*
X155636204Y-88178996D01*
X155636203Y-88178997D01*
X155565028Y-88265723D01*
X155494456Y-88397753D01*
X155464203Y-88497489D01*
X155451000Y-88541013D01*
X155440003Y-88652666D01*
X155436326Y-88689999D01*
X155440003Y-88727332D01*
X155440003Y-89115066D01*
X155175774Y-88938513D01*
X154714433Y-88747419D01*
X154224677Y-88650001D01*
X153725325Y-88650001D01*
X153235569Y-88747419D01*
X152774228Y-88938513D01*
X152359033Y-89215938D01*
X152005938Y-89569033D01*
X151728513Y-89984228D01*
X151537419Y-90445569D01*
X151440001Y-90935325D01*
X151440001Y-91434677D01*
X151537419Y-91924433D01*
X151728513Y-92385774D01*
X152005938Y-92800969D01*
X152359033Y-93154064D01*
X152774228Y-93431489D01*
X153235569Y-93622583D01*
X153725325Y-93720001D01*
X154224677Y-93720001D01*
X154714433Y-93622583D01*
X155175774Y-93431489D01*
X155440003Y-93254937D01*
X155440002Y-105105196D01*
X152360199Y-108185000D01*
X152298061Y-108185000D01*
X152098102Y-108224774D01*
X151909744Y-108302795D01*
X151740226Y-108416063D01*
X151596063Y-108560226D01*
X151482795Y-108729744D01*
X151404774Y-108918102D01*
X151365000Y-109118061D01*
X149625000Y-109118061D01*
X149585226Y-108918102D01*
X149507205Y-108729744D01*
X149410490Y-108585000D01*
X149507205Y-108440256D01*
X149585226Y-108251898D01*
X149625000Y-108051939D01*
X149625000Y-107848061D01*
X149585226Y-107648102D01*
X149507205Y-107459744D01*
X149393937Y-107290226D01*
X149249774Y-107146063D01*
X149080256Y-107032795D01*
X148891898Y-106954774D01*
X148691939Y-106915000D01*
X148488061Y-106915000D01*
X148288102Y-106954774D01*
X148099744Y-107032795D01*
X147930226Y-107146063D01*
X147886289Y-107190000D01*
X111490912Y-107190000D01*
X111453589Y-107186324D01*
X111416266Y-107190000D01*
X111416257Y-107190000D01*
X111304604Y-107200997D01*
X111161343Y-107244454D01*
X111029313Y-107315026D01*
X110945673Y-107383668D01*
X110913589Y-107409999D01*
X110889791Y-107438997D01*
X107623987Y-110704802D01*
X107594989Y-110728600D01*
X107571191Y-110757598D01*
X107500016Y-110844324D01*
X107446739Y-110943998D01*
X107429444Y-110976354D01*
X107385987Y-111119615D01*
X107374990Y-111231268D01*
X107374990Y-111231278D01*
X107371314Y-111268600D01*
X106807000Y-111268600D01*
X106807000Y-89885001D01*
X108336929Y-89885001D01*
X108336929Y-92485001D01*
X108349189Y-92609483D01*
X108385499Y-92729181D01*
X108444464Y-92839495D01*
X108523816Y-92936186D01*
X108620507Y-93015538D01*
X108730821Y-93074503D01*
X108850519Y-93110813D01*
X108975001Y-93123073D01*
X111575001Y-93123073D01*
X111699483Y-93110813D01*
X111819181Y-93074503D01*
X111929495Y-93015538D01*
X112026186Y-92936186D01*
X112105538Y-92839495D01*
X112164503Y-92729181D01*
X112200813Y-92609483D01*
X112213073Y-92485001D01*
X112213073Y-90935325D01*
X119640001Y-90935325D01*
X119640001Y-91434677D01*
X119737419Y-91924433D01*
X119928513Y-92385774D01*
X120205938Y-92800969D01*
X120559033Y-93154064D01*
X120974228Y-93431489D01*
X121435569Y-93622583D01*
X121925325Y-93720001D01*
X122424677Y-93720001D01*
X122914433Y-93622583D01*
X123375774Y-93431489D01*
X123790969Y-93154064D01*
X124144064Y-92800969D01*
X124421489Y-92385774D01*
X124612583Y-91924433D01*
X124710001Y-91434677D01*
X124710001Y-90935325D01*
X124612583Y-90445569D01*
X124421489Y-89984228D01*
X124144064Y-89569033D01*
X123790969Y-89215938D01*
X123375774Y-88938513D01*
X122914433Y-88747419D01*
X122424677Y-88650001D01*
X121925325Y-88650001D01*
X121435569Y-88747419D01*
X120974228Y-88938513D01*
X120559033Y-89215938D01*
X120205938Y-89569033D01*
X119928513Y-89984228D01*
X119737419Y-90445569D01*
X119640001Y-90935325D01*
X112213073Y-90935325D01*
X112213073Y-89885001D01*
X112200813Y-89760519D01*
X112164503Y-89640821D01*
X112105538Y-89530507D01*
X112026186Y-89433816D01*
X111929495Y-89354464D01*
X111819181Y-89295499D01*
X111699483Y-89259189D01*
X111575001Y-89246929D01*
X108975001Y-89246929D01*
X108850519Y-89259189D01*
X108730821Y-89295499D01*
X108620507Y-89354464D01*
X108523816Y-89433816D01*
X108444464Y-89530507D01*
X108385499Y-89640821D01*
X108349189Y-89760519D01*
X108336929Y-89885001D01*
X106807000Y-89885001D01*
X106807000Y-72517000D01*
X180213000Y-72517000D01*
X180213000Y-116713000D01*
G37*
G04 #@! TD.AperFunction*
D16*
X155698201Y-114810000D02*
X154574013Y-114810000D01*
X154587205Y-114790256D01*
X154665226Y-114601898D01*
X154705000Y-114401939D01*
X154705000Y-114300011D01*
X156208190Y-114300011D01*
X155698201Y-114810000D01*
G04 #@! TA.AperFunction,NonConductor*
D17*
G36*
X155698201Y-114810000D02*
G01*
X154574013Y-114810000D01*
X154587205Y-114790256D01*
X154665226Y-114601898D01*
X154705000Y-114401939D01*
X154705000Y-114300011D01*
X156208190Y-114300011D01*
X155698201Y-114810000D01*
G37*
G04 #@! TD.AperFunction*
D16*
X121291929Y-112376730D02*
X121291929Y-113215001D01*
X121293408Y-113230021D01*
X119511663Y-113230021D01*
X119561886Y-113136060D01*
X119628216Y-112917400D01*
X119645001Y-112746979D01*
X119645001Y-112183022D01*
X119641748Y-112149991D01*
X121065190Y-112149991D01*
X121291929Y-112376730D01*
G04 #@! TA.AperFunction,NonConductor*
D17*
G36*
X121291929Y-112376730D02*
G01*
X121291929Y-113215001D01*
X121293408Y-113230021D01*
X119511663Y-113230021D01*
X119561886Y-113136060D01*
X119628216Y-112917400D01*
X119645001Y-112746979D01*
X119645001Y-112183022D01*
X119641748Y-112149991D01*
X121065190Y-112149991D01*
X121291929Y-112376730D01*
G37*
G04 #@! TD.AperFunction*
D16*
X156747245Y-112299044D02*
X156676063Y-112370226D01*
X156562795Y-112539744D01*
X156484774Y-112728102D01*
X156474449Y-112780011D01*
X139171748Y-112780011D01*
X139175001Y-112746979D01*
X139175001Y-112183022D01*
X139171748Y-112149991D01*
X156598192Y-112149991D01*
X156747245Y-112299044D01*
G04 #@! TA.AperFunction,NonConductor*
D17*
G36*
X156747245Y-112299044D02*
G01*
X156676063Y-112370226D01*
X156562795Y-112539744D01*
X156484774Y-112728102D01*
X156474449Y-112780011D01*
X139171748Y-112780011D01*
X139175001Y-112746979D01*
X139175001Y-112183022D01*
X139171748Y-112149991D01*
X156598192Y-112149991D01*
X156747245Y-112299044D01*
G37*
G04 #@! TD.AperFunction*
M02*
